<?xml version="1.0" encoding="UTF-8" standalone="no"?>
<!-- Created with Inkscape (http://www.inkscape.org/) -->
<svg
   xmlns:dc="http://purl.org/dc/elements/1.1/"
   xmlns:cc="http://creativecommons.org/ns#"
   xmlns:rdf="http://www.w3.org/1999/02/22-rdf-syntax-ns#"
   xmlns:svg="http://www.w3.org/2000/svg"
   xmlns="http://www.w3.org/2000/svg"
   xmlns:xlink="http://www.w3.org/1999/xlink"
   xmlns:sodipodi="http://sodipodi.sourceforge.net/DTD/sodipodi-0.dtd"
   xmlns:inkscape="http://www.inkscape.org/namespaces/inkscape"
   width="128"
   height="128"
   id="svg3441"
   sodipodi:version="0.32"
   inkscape:version="0.46"
   version="1.0"
   sodipodi:docname="clean.svg"
   inkscape:output_extension="org.inkscape.output.svg.inkscape">
  <defs
     id="defs3443">
    <filter
       inkscape:collect="always"
       id="filter4780"
       x="-0.25856406"
       width="1.5171281"
       y="-0.22392305"
       height="1.4478461">
      <feGaussianBlur
         inkscape:collect="always"
         stdDeviation="0.070012409"
         id="feGaussianBlur4782" />
    </filter>
    <filter
       inkscape:collect="always"
       id="filter6328"
       x="-0.4345457"
       width="1.8690914"
       y="-0.16578031"
       height="1.3315606">
      <feGaussianBlur
         inkscape:collect="always"
         stdDeviation="0.022430427"
         id="feGaussianBlur6330" />
    </filter>
    <filter
       inkscape:collect="always"
       id="filter4716">
      <feGaussianBlur
         inkscape:collect="always"
         stdDeviation="0.0069827863"
         id="feGaussianBlur4718" />
    </filter>
    <linearGradient
       inkscape:collect="always"
       xlink:href="#linearGradient4666"
       id="linearGradient4190"
       gradientUnits="userSpaceOnUse"
       x1="-0.012378225"
       y1="-0.02434949"
       x2="0.55083156"
       y2="0.52962703" />
    <filter
       inkscape:collect="always"
       id="filter4698">
      <feGaussianBlur
         inkscape:collect="always"
         stdDeviation="0.011637977"
         id="feGaussianBlur4700" />
    </filter>
    <linearGradient
       inkscape:collect="always"
       id="linearGradient4666">
      <stop
         style="stop-color:#ffffff;stop-opacity:1;"
         offset="0"
         id="stop4668" />
      <stop
         style="stop-color:#ffffff;stop-opacity:0;"
         offset="1"
         id="stop4670" />
    </linearGradient>
    <linearGradient
       inkscape:collect="always"
       xlink:href="#linearGradient4666"
       id="linearGradient4188"
       gradientUnits="userSpaceOnUse"
       gradientTransform="translate(6.1891184e-2,7.4269421e-2)"
       x1="-0.012378225"
       y1="-0.02434949"
       x2="0.55083156"
       y2="0.52962703" />
    <linearGradient
       inkscape:collect="always"
       id="linearGradient4653">
      <stop
         style="stop-color:#000000;stop-opacity:1;"
         offset="0"
         id="stop4655" />
      <stop
         style="stop-color:#000000;stop-opacity:0;"
         offset="1"
         id="stop4657" />
    </linearGradient>
    <linearGradient
       inkscape:collect="always"
       xlink:href="#linearGradient4653"
       id="linearGradient4186"
       gradientUnits="userSpaceOnUse"
       x1="1.1583395"
       y1="1.0212729"
       x2="0.28891477"
       y2="0.34408274" />
    <linearGradient
       id="linearGradient3373"
       inkscape:collect="always">
      <stop
         id="stop3375"
         offset="0"
         style="stop-color:#f2f2f2;stop-opacity:1;" />
      <stop
         id="stop3377"
         offset="1"
         style="stop-color:#f2f2f2;stop-opacity:0;" />
    </linearGradient>
    <linearGradient
       inkscape:collect="always"
       xlink:href="#linearGradient3373"
       id="linearGradient4753"
       gradientUnits="userSpaceOnUse"
       gradientTransform="matrix(3.79942e-3,0,0,3.784158e-3,0.1484225,-0.771807)"
       x1="137.76368"
       y1="237.74885"
       x2="141.80429"
       y2="237.74885" />
    <linearGradient
       id="linearGradient3363"
       inkscape:collect="always">
      <stop
         id="stop3365"
         offset="0"
         style="stop-color:#f2f2f2;stop-opacity:1;" />
      <stop
         id="stop3367"
         offset="1"
         style="stop-color:#f2f2f2;stop-opacity:0;" />
    </linearGradient>
    <linearGradient
       inkscape:collect="always"
       xlink:href="#linearGradient3363"
       id="linearGradient4756"
       gradientUnits="userSpaceOnUse"
       gradientTransform="matrix(3.79942e-3,0,0,3.784158e-3,0.1484225,-0.771807)"
       x1="130.69261"
       y1="221.08133"
       x2="147.86521"
       y2="221.08133" />
    <linearGradient
       id="linearGradient3353"
       inkscape:collect="always">
      <stop
         id="stop3355"
         offset="0"
         style="stop-color:#f2f2f2;stop-opacity:1;" />
      <stop
         id="stop4708"
         offset="1"
         style="stop-color:#f2f2f2;stop-opacity:0;" />
    </linearGradient>
    <linearGradient
       inkscape:collect="always"
       xlink:href="#linearGradient3353"
       id="linearGradient4759"
       gradientUnits="userSpaceOnUse"
       gradientTransform="matrix(3.79942e-3,0,0,3.784158e-3,0.1484225,-0.771807)"
       x1="60.487013"
       y1="238.00139"
       x2="64.527623"
       y2="238.00139" />
    <linearGradient
       id="linearGradient3343"
       inkscape:collect="always">
      <stop
         id="stop3345"
         offset="0"
         style="stop-color:#f2f2f2;stop-opacity:1;" />
      <stop
         id="stop3347"
         offset="1"
         style="stop-color:#f2f2f2;stop-opacity:0;" />
    </linearGradient>
    <linearGradient
       inkscape:collect="always"
       xlink:href="#linearGradient3343"
       id="linearGradient4762"
       gradientUnits="userSpaceOnUse"
       gradientTransform="matrix(3.79942e-3,0,0,3.784158e-3,0.1484225,-0.771807)"
       x1="53.415945"
       y1="221.08133"
       x2="70.706362"
       y2="221.08133" />
    <inkscape:perspective
       sodipodi:type="inkscape:persp3d"
       inkscape:vp_x="0 : 526.18109 : 1"
       inkscape:vp_y="0 : 1000 : 0"
       inkscape:vp_z="744.09448 : 526.18109 : 1"
       inkscape:persp3d-origin="372.04724 : 350.78739 : 1"
       id="perspective3449" />
    <radialGradient
       gradientUnits="userSpaceOnUse"
       gradientTransform="matrix(1,0,0,0.45,0,37.95)"
       r="20"
       fy="69"
       fx="28.603323"
       cy="69"
       cx="38"
       id="radialGradient6025"
       xlink:href="#linearGradient6019"
       inkscape:collect="always" />
    <linearGradient
       gradientTransform="translate(-2,0)"
       gradientUnits="userSpaceOnUse"
       y2="34.728424"
       x2="23.489431"
       y1="36.218422"
       x1="27.354809"
       id="linearGradient6005"
       xlink:href="#linearGradient5999"
       inkscape:collect="always" />
    <linearGradient
       gradientTransform="translate(-2,0)"
       gradientUnits="userSpaceOnUse"
       y2="37.845814"
       x2="29.494455"
       y1="27.446827"
       x1="17.032078"
       id="linearGradient5993"
       xlink:href="#linearGradient5987"
       inkscape:collect="always" />
    <linearGradient
       gradientTransform="translate(-2,0)"
       y2="37.029255"
       x2="18.985712"
       y1="41.955986"
       x1="22.319767"
       gradientUnits="userSpaceOnUse"
       id="linearGradient5973"
       xlink:href="#linearGradient5981"
       inkscape:collect="always" />
    <linearGradient
       gradientTransform="translate(-2,0)"
       gradientUnits="userSpaceOnUse"
       y2="18"
       x2="34"
       y1="9.2407961"
       x1="30.324829"
       id="linearGradient6002"
       xlink:href="#linearGradient5996"
       inkscape:collect="always" />
    <linearGradient
       y2="16.685888"
       x2="33.447109"
       y1="8"
       x1="28"
       gradientUnits="userSpaceOnUse"
       id="linearGradient5994"
       xlink:href="#linearGradient5984"
       inkscape:collect="always" />
    <linearGradient
       gradientTransform="matrix(0.9768193,0,0,1,-1.3746633,0)"
       gradientUnits="userSpaceOnUse"
       y2="20.618719"
       x2="21.59099"
       y1="23.145937"
       x1="27.651777"
       id="linearGradient5980"
       xlink:href="#linearGradient5974"
       inkscape:collect="always" />
    <linearGradient
       gradientTransform="translate(-2,0)"
       gradientUnits="userSpaceOnUse"
       y2="30.742676"
       x2="30.208115"
       y1="25.060659"
       x1="20.933708"
       id="linearGradient5972"
       xlink:href="#linearGradient5966"
       inkscape:collect="always" />
    <linearGradient
       gradientTransform="translate(-2,0)"
       gradientUnits="userSpaceOnUse"
       y2="8"
       x2="26"
       y1="16"
       x1="28"
       id="linearGradient5964"
       xlink:href="#linearGradient5958"
       inkscape:collect="always" />
    <linearGradient
       id="linearGradient5958"
       inkscape:collect="always">
      <stop
         id="stop5960"
         offset="0"
         style="stop-color:#c17d11;stop-opacity:1;" />
      <stop
         id="stop5962"
         offset="1"
         style="stop-color:#e9b96e;stop-opacity:1" />
    </linearGradient>
    <linearGradient
       id="linearGradient5966"
       inkscape:collect="always">
      <stop
         id="stop5968"
         offset="0"
         style="stop-color:#fdef72;stop-opacity:1" />
      <stop
         id="stop5970"
         offset="1"
         style="stop-color:#e2cb0b;stop-opacity:1" />
    </linearGradient>
    <linearGradient
       id="linearGradient5974"
       inkscape:collect="always">
      <stop
         id="stop5976"
         offset="0"
         style="stop-color:#ad7fa8;stop-opacity:1;" />
      <stop
         id="stop5978"
         offset="1"
         style="stop-color:#dac6d8;stop-opacity:1" />
    </linearGradient>
    <linearGradient
       id="linearGradient5984"
       inkscape:collect="always">
      <stop
         id="stop5986"
         offset="0"
         style="stop-color:#ffffff;stop-opacity:1;" />
      <stop
         id="stop5988"
         offset="1"
         style="stop-color:#ffffff;stop-opacity:0.13438736" />
    </linearGradient>
    <linearGradient
       id="linearGradient5996"
       inkscape:collect="always">
      <stop
         id="stop5998"
         offset="0"
         style="stop-color:#8f5902;stop-opacity:1;" />
      <stop
         id="stop6000"
         offset="1"
         style="stop-color:#73521e;stop-opacity:1" />
    </linearGradient>
    <linearGradient
       inkscape:collect="always"
       id="linearGradient5981">
      <stop
         style="stop-color:#ffffff;stop-opacity:1;"
         offset="0"
         id="stop5983" />
      <stop
         style="stop-color:#ffffff;stop-opacity:0.69411765"
         offset="1"
         id="stop5985" />
    </linearGradient>
    <linearGradient
       id="linearGradient5987"
       inkscape:collect="always">
      <stop
         id="stop5989"
         offset="0"
         style="stop-color:#d7c20f;stop-opacity:1" />
      <stop
         id="stop5991"
         offset="1"
         style="stop-color:#b6970d;stop-opacity:1" />
    </linearGradient>
    <linearGradient
       id="linearGradient5999"
       inkscape:collect="always">
      <stop
         id="stop6001"
         offset="0"
         style="stop-color:#c4a000;stop-opacity:1;" />
      <stop
         id="stop6003"
         offset="1"
         style="stop-color:#c4a000;stop-opacity:0;" />
    </linearGradient>
    <linearGradient
       id="linearGradient6019"
       inkscape:collect="always">
      <stop
         id="stop6021"
         offset="0"
         style="stop-color:#000000;stop-opacity:1;" />
      <stop
         id="stop6023"
         offset="1"
         style="stop-color:#000000;stop-opacity:0;" />
    </linearGradient>
    <inkscape:perspective
       id="perspective10319"
       inkscape:persp3d-origin="24 : 16 : 1"
       inkscape:vp_z="48 : 24 : 1"
       inkscape:vp_y="0 : 1000 : 0"
       inkscape:vp_x="0 : 24 : 1"
       sodipodi:type="inkscape:persp3d" />
  </defs>
  <sodipodi:namedview
     id="base"
     pagecolor="#ffffff"
     bordercolor="#666666"
     borderopacity="1.0"
     gridtolerance="10000"
     guidetolerance="10"
     objecttolerance="10"
     inkscape:pageopacity="0.0"
     inkscape:pageshadow="2"
     inkscape:zoom="1.9296875"
     inkscape:cx="58.331731"
     inkscape:cy="71.840393"
     inkscape:document-units="px"
     inkscape:current-layer="layer1"
     showgrid="false"
     inkscape:window-width="1146"
     inkscape:window-height="899"
     inkscape:window-x="237"
     inkscape:window-y="117" />
  <metadata
     id="metadata3446">
    <rdf:RDF>
      <cc:Work
         rdf:about="">
        <dc:format>image/svg+xml</dc:format>
        <dc:type
           rdf:resource="http://purl.org/dc/dcmitype/StillImage" />
      </cc:Work>
    </rdf:RDF>
  </metadata>
  <g
     inkscape:label="Layer 1"
     inkscape:groupmode="layer"
     id="layer1">
    <path
       sodipodi:type="arc"
       style="fill:#3d9bde;fill-opacity:0.71764706;fill-rule:evenodd;stroke:none;stroke-width:2;stroke-miterlimit:4;stroke-dasharray:none"
       id="path4118"
       sodipodi:cx="0.59724993"
       sodipodi:cy="0.62555832"
       sodipodi:rx="0.53535873"
       sodipodi:ry="0.53535873"
       d="M 1.1326087,0.62555832 A 0.53535873,0.53535873 0 1 1 0.061891198,0.62555832 A 0.53535873,0.53535873 0 1 1 1.1326087,0.62555832 z"
       transform="matrix(107.40462,0,0,107.40462,-0.1474048,-3.1878528)" />
    <path
       transform="matrix(107.40462,0,0,107.40462,-0.1474048,-3.1878528)"
       d="M 1.1326087,0.62555832 A 0.53535873,0.53535873 0 1 1 0.061891198,0.62555832 A 0.53535873,0.53535873 0 1 1 1.1326087,0.62555832 z"
       sodipodi:ry="0.53535873"
       sodipodi:rx="0.53535873"
       sodipodi:cy="0.62555832"
       sodipodi:cx="0.59724993"
       id="path4120"
       style="fill:url(#linearGradient4186);fill-opacity:1;fill-rule:evenodd;stroke:none;stroke-width:2;stroke-miterlimit:4;stroke-dasharray:none"
       sodipodi:type="arc" />
    <path
       transform="matrix(107.47611,0,0,107.47611,13.042035,15.291072)"
       id="path4122"
       d="M 0.53153847,0.20479905 C 0.46495011,0.20743509 0.38267536,0.24479857 0.31425332,0.3090471 C 0.20999115,0.40694962 0.17728899,0.53045965 0.24125527,0.584926 C 0.26689879,0.60676108 0.30426592,0.61435496 0.34647988,0.60909593 C 0.3496452,0.62485545 0.35709176,0.63834952 0.36918496,0.64864671 C 0.41707241,0.68942216 0.51915788,0.66310215 0.5972123,0.58980882 C 0.67526671,0.51651547 0.69978726,0.42404129 0.6518998,0.38326585 C 0.64777104,0.37975027 0.64335819,0.37676264 0.63847207,0.37423265 C 0.66056321,0.31545975 0.65558815,0.26139435 0.61894082,0.23018968 C 0.59695241,0.21146687 0.56641809,0.20341827 0.53153847,0.20479905 z"
       style="opacity:0.5;fill:url(#linearGradient4188);fill-opacity:1;fill-rule:evenodd;stroke:none;stroke-width:2;stroke-miterlimit:4;stroke-dasharray:none;filter:url(#filter4698)" />
    <path
       id="path4124"
       d="M 0.4696473,0.1305296 C 0.4030589,0.1331657 0.3207841,0.17052915 0.2523621,0.23477768 C 0.1480999,0.3326802 0.1153978,0.45619023 0.1793641,0.51065658 C 0.2050076,0.53249166 0.2423747,0.54008554 0.2845887,0.53482651 C 0.287754,0.55058603 0.2952005,0.5640801 0.3072937,0.57437729 C 0.3551812,0.61515274 0.4572667,0.58883273 0.5353211,0.5155394 C 0.6133755,0.44224605 0.637896,0.34977187 0.5900086,0.30899643 C 0.5858798,0.30548085 0.581467,0.30249322 0.5765809,0.29996323 C 0.598672,0.24119033 0.5936969,0.18712493 0.5570496,0.15592026 C 0.5350612,0.1371974 0.5045269,0.1291488 0.4696473,0.1305296 z"
       style="opacity:0.9;fill:url(#linearGradient4190);fill-opacity:1;fill-rule:evenodd;stroke:none;stroke-width:2;stroke-miterlimit:4;stroke-dasharray:none;filter:url(#filter4716)"
       transform="scale(128,128)" />
    <g
       id="g10358"
       inkscape:label="Livello 1"
       transform="matrix(2.8798416,0,0,2.8798416,-5.8354118,-4.5958399)">
      <path
         transform="matrix(1,0,0,0.6666668,-13.999999,-5.0000087)"
         d="M 58,69 A 20,9 0 1 1 18,69 A 20,9 0 1 1 58,69 z"
         sodipodi:ry="9"
         sodipodi:rx="20"
         sodipodi:cy="69"
         sodipodi:cx="38"
         id="path6017"
         style="opacity:0.25;fill:url(#radialGradient6025);fill-opacity:1;stroke:none;stroke-width:0.99999994;stroke-linecap:round;stroke-linejoin:round;stroke-miterlimit:20;stroke-dasharray:none;stroke-opacity:1"
         sodipodi:type="arc" />
      <path
         id="path5371"
         d="M 34.59375,2.46875 C 26.390533,2.5744003 25.19695,18.716276 22.84375,21.625 L 26.84375,23.0625 C 29.475623,18.689953 42.599746,4.1545034 35.40625,2.5 C 35.12676,2.4690309 34.85837,2.4653419 34.59375,2.46875 z M 33.5625,4.53125 C 33.756063,4.5125114 33.930486,4.5369694 34.09375,4.625 C 34.746806,4.9771226 34.817405,6.1198771 34.25,7.15625 C 33.682595,8.1926229 32.684304,8.7583725 32.03125,8.40625 C 31.378197,8.0541272 31.307595,6.9113729 31.875,5.875 C 32.300554,5.0977202 32.981812,4.5874659 33.5625,4.53125 z"
         style="fill:url(#linearGradient5964);fill-opacity:1;fill-rule:evenodd;stroke:url(#linearGradient6002);stroke-width:1px;stroke-linecap:butt;stroke-linejoin:miter;stroke-opacity:1" />
      <path
         transform="translate(-2,0)"
         d="M 36.59375,3.46875 C 34.872132,3.4909229 33.585825,4.3246243 32.40625,5.75 C 31.226675,7.1753757 30.257916,9.1916354 29.46875,11.34375 C 28.679584,13.495865 28.04471,15.77802 27.46875,17.71875 C 27.068859,19.066206 26.698893,20.125198 26.25,21.0625 L 28.4375,21.84375 C 30.056094,19.348126 33.476298,15.252572 35.96875,11.21875 C 37.294589,9.0729934 38.25245,7.0407089 38.46875,5.65625 C 38.5769,4.9640206 38.513818,4.4833206 38.34375,4.1875 C 38.179059,3.9010309 37.880274,3.6629145 37.21875,3.5 C 37.019255,3.4812162 36.817917,3.4658629 36.59375,3.46875 z"
         id="path5992"
         style="opacity:0.26666667;fill:none;fill-opacity:1;fill-rule:evenodd;stroke:url(#linearGradient5994);stroke-width:1px;stroke-linecap:butt;stroke-linejoin:miter;stroke-opacity:1"
         inkscape:original="M 36.59375 2.46875 C 28.390533 2.5744003 27.19695 18.716276 24.84375 21.625 L 28.84375 23.0625 C 31.475623 18.689953 44.599746 4.1545034 37.40625 2.5 C 37.12676 2.4690309 36.85837 2.4653419 36.59375 2.46875 z "
         inkscape:radius="-1.0049498"
         sodipodi:type="inkscape:offset" />
      <path
         sodipodi:nodetypes="cccccccccccccccc"
         id="path5367"
         d="M 20.5,16.5 C 21.209506,18.503007 19.958612,20.237831 19.5,21.5 C 14.308433,23.045674 10.713199,31.203726 5.3674175,35.453585 C 6.0352055,36.150983 6.819644,36.897763 7.5,37.5 L 11.5625,33.96875 L 8.494944,38.493399 C 10.704181,40.284382 13,41.5 14.5,42 L 17.25,38.34375 L 15.5,42.5 C 16.951994,43.088882 20.485286,43.982025 22.5,44 L 24.50389,40.597503 L 23.990721,44.0625 C 24.820284,44.220859 26.428886,44.436716 27.5,44.46875 C 30.862186,38.96875 31.5,30 29.5,26 C 29,24 31,21.5 32.5,20.5 C 30,18.5 24.294411,16.196274 20.5,16.5 z"
         style="fill:url(#linearGradient5972);fill-opacity:1;fill-rule:evenodd;stroke:url(#linearGradient5993);stroke-width:0.99999994;stroke-linecap:butt;stroke-linejoin:miter;stroke-miterlimit:20;stroke-dasharray:none;stroke-opacity:1" />
      <path
         sodipodi:nodetypes="cccc"
         id="path5975"
         d="M 9,38.5 C 13.816495,33.489105 13.465023,31.296074 19.116117,26.972272 C 16.133675,31.800703 15.650278,34.31233 12,40.5 L 9,38.5 z"
         style="opacity:0.26666667;fill:#c4a000;fill-rule:evenodd;stroke:none;stroke-width:1px;stroke-linecap:butt;stroke-linejoin:miter;stroke-opacity:1" />
      <path
         sodipodi:nodetypes="ccccc"
         id="path5979"
         d="M 16.149808,42.202452 L 20.495835,32.362305 C 22.160348,29.378578 23.355507,26.392253 25.024808,24.014952 C 23.422854,29.432989 20.134118,36.136745 17.493558,42.639952 L 16.149808,42.202452 z"
         style="opacity:0.41568627;fill:#c4a000;fill-rule:evenodd;stroke:none;stroke-width:1px;stroke-linecap:butt;stroke-linejoin:miter;stroke-opacity:1" />
      <path
         sodipodi:nodetypes="csccccccccccccsssscsc"
         id="path6014"
         d="M 21.625,17.5 C 21.721738,19.415146 20.702057,21.029645 20.40625,21.84375 C 20.302147,22.128459 20.07092,22.348124 19.78125,22.4375 C 14.327852,24.672144 12.151447,31.011538 6.7866116,35.523667 C 6.988254,35.723521 7.2786424,35.940971 7.4811412,36.131898 L 16.5,28.5 L 9.923385,38.310313 C 11.193418,39.337926 12.645586,40.194857 14.150041,40.799478 L 21.144394,31.5 L 16.869501,41.911612 C 18.46507,42.437269 19.967804,42.738908 21.81451,43 L 26.43324,35.3125 L 25.0625,43.219317 L 26.9375,43.445312 C 28.370713,40.909818 29.069882,37.778782 29.46875,34.65625 C 29.892695,31.337404 29.463786,28.115072 28.625,26.4375 C 28.597837,26.377291 28.576895,26.314465 28.5625,26.25 C 28.215642,24.862569 28.731642,23.504373 29.4375,22.375 C 29.864393,21.691971 30.367872,21.084221 30.902459,20.573223 C 29.730977,19.790532 28.315762,19.113157 26.53125,18.46875 C 24.769173,17.832444 23.033252,17.518725 21.625,17.5 z"
         style="opacity:0.47843137;fill:none;fill-opacity:1;fill-rule:evenodd;stroke:url(#linearGradient5973);stroke-width:0.99999994px;stroke-linecap:butt;stroke-linejoin:miter;stroke-opacity:1" />
      <path
         sodipodi:nodetypes="ccccccc"
         id="path5977"
         d="M 18.96875,43 C 21.146316,37.248129 25.364666,32.931057 26.985663,27.064588 C 27.037206,30.726661 27.235383,37.268314 25.09375,43.78125 C 24.773984,43.783025 24.919823,43.670441 24.62387,43.662697 L 25.424662,37.93818 L 22.143176,43.492564 C 19.952368,43.33624 20.848565,43.525163 18.96875,43 z"
         style="opacity:0.24705882;fill:url(#linearGradient6005);fill-opacity:1;fill-rule:evenodd;stroke:none;stroke-width:1px;stroke-linecap:butt;stroke-linejoin:miter;stroke-opacity:1" />
      <path
         sodipodi:nodetypes="cccc"
         id="path5995"
         d="M 21.003067,22.610447 C 19.751072,23.226826 18.940858,24.137725 18.019961,24.974835 C 19.246448,24.266192 20.398947,23.525841 22.019534,22.986097 L 21.003067,22.610447 z"
         style="opacity:0.48235294;fill:#c4a000;fill-rule:evenodd;stroke:none;stroke-width:1px;stroke-linecap:butt;stroke-linejoin:miter;stroke-opacity:1" />
      <path
         sodipodi:nodetypes="cccc"
         id="path5997"
         d="M 23.008698,23.061049 L 21.992233,25.049787 L 24.972946,23.461537 L 23.008698,23.061049 z"
         style="opacity:0.48235294;fill:#c4a000;fill-rule:evenodd;stroke:none;stroke-width:1px;stroke-linecap:butt;stroke-linejoin:miter;stroke-opacity:1" />
      <path
         sodipodi:nodetypes="cccc"
         id="path6007"
         d="M 22.939805,17.961399 L 22.044612,19.668421 L 23.610339,20.170505 L 22.939805,17.961399 z"
         style="opacity:0.48235294;fill:#c4a000;fill-rule:evenodd;stroke:none;stroke-width:1px;stroke-linecap:butt;stroke-linejoin:miter;stroke-opacity:1" />
      <path
         sodipodi:nodetypes="cccc"
         id="path6009"
         d="M 29.923254,19.88537 L 27.463006,21.720817 L 29.028733,22.222901 L 29.923254,19.88537 z"
         style="opacity:0.48235294;fill:#c4a000;fill-rule:evenodd;stroke:none;stroke-width:1px;stroke-linecap:butt;stroke-linejoin:miter;stroke-opacity:1" />
      <path
         sodipodi:nodetypes="cccc"
         id="path6011"
         d="M 26.012925,17.938566 L 24.499014,20.46318 L 26.064741,20.965264 L 26.012925,17.938566 z"
         style="opacity:0.48235294;fill:#c4a000;fill-rule:evenodd;stroke:none;stroke-width:1px;stroke-linecap:butt;stroke-linejoin:miter;stroke-opacity:1" />
      <path
         sodipodi:nodetypes="cccc"
         id="path6013"
         d="M 18.967726,22.024699 C 18.400946,19.059215 28.300561,24.177602 30.004548,25.019068 C 29.998066,26.098136 30.004548,27.019068 29.027729,27.019068 C 26.460191,25.626088 22.492474,23.413925 18.967726,22.024699 z"
         style="opacity:0.2;fill:#000000;fill-opacity:1;fill-rule:evenodd;stroke:none;stroke-width:1px;stroke-linecap:butt;stroke-linejoin:round;stroke-opacity:1" />
      <path
         sodipodi:nodetypes="ccccc"
         id="path5373"
         d="M 18.650133,21.5 C 18.161723,20.5 18.650133,19.5 19.626953,19.5 C 23.618393,20.475417 26.951828,21.706232 30.371965,23.5 C 30.860375,24.5 30.371965,25.5 29.395146,25.5 C 25.861203,23.63558 22.528435,22.425187 18.650133,21.5 z"
         style="fill:url(#linearGradient5980);fill-opacity:1;fill-rule:evenodd;stroke:#5c3566;stroke-width:1px;stroke-linecap:butt;stroke-linejoin:round;stroke-opacity:1" />
    </g>
  </g>
</svg>
