<?xml version="1.0" encoding="UTF-8" standalone="no"?>
<!-- Created with Inkscape (http://www.inkscape.org/) -->
<svg
   xmlns:dc="http://purl.org/dc/elements/1.1/"
   xmlns:cc="http://creativecommons.org/ns#"
   xmlns:rdf="http://www.w3.org/1999/02/22-rdf-syntax-ns#"
   xmlns:svg="http://www.w3.org/2000/svg"
   xmlns="http://www.w3.org/2000/svg"
   xmlns:xlink="http://www.w3.org/1999/xlink"
   xmlns:sodipodi="http://sodipodi.sourceforge.net/DTD/sodipodi-0.dtd"
   xmlns:inkscape="http://www.inkscape.org/namespaces/inkscape"
   width="128"
   height="128"
   id="svg3441"
   sodipodi:version="0.32"
   inkscape:version="0.46"
   version="1.0"
   sodipodi:docname="description.svg"
   inkscape:output_extension="org.inkscape.output.svg.inkscape">
  <defs
     id="defs3443">
    <filter
       inkscape:collect="always"
       id="filter4780"
       x="-0.25856406"
       width="1.5171281"
       y="-0.22392305"
       height="1.4478461">
      <feGaussianBlur
         inkscape:collect="always"
         stdDeviation="0.070012409"
         id="feGaussianBlur4782" />
    </filter>
    <filter
       inkscape:collect="always"
       id="filter6328"
       x="-0.4345457"
       width="1.8690914"
       y="-0.16578031"
       height="1.3315606">
      <feGaussianBlur
         inkscape:collect="always"
         stdDeviation="0.022430427"
         id="feGaussianBlur6330" />
    </filter>
    <filter
       inkscape:collect="always"
       id="filter4716">
      <feGaussianBlur
         inkscape:collect="always"
         stdDeviation="0.0069827863"
         id="feGaussianBlur4718" />
    </filter>
    <linearGradient
       inkscape:collect="always"
       xlink:href="#linearGradient4666"
       id="linearGradient4190"
       gradientUnits="userSpaceOnUse"
       x1="-0.012378225"
       y1="-0.02434949"
       x2="0.55083156"
       y2="0.52962703" />
    <filter
       inkscape:collect="always"
       id="filter4698">
      <feGaussianBlur
         inkscape:collect="always"
         stdDeviation="0.011637977"
         id="feGaussianBlur4700" />
    </filter>
    <linearGradient
       inkscape:collect="always"
       id="linearGradient4666">
      <stop
         style="stop-color:#ffffff;stop-opacity:1;"
         offset="0"
         id="stop4668" />
      <stop
         style="stop-color:#ffffff;stop-opacity:0;"
         offset="1"
         id="stop4670" />
    </linearGradient>
    <linearGradient
       inkscape:collect="always"
       xlink:href="#linearGradient4666"
       id="linearGradient4188"
       gradientUnits="userSpaceOnUse"
       gradientTransform="translate(6.1891184e-2,7.4269421e-2)"
       x1="-0.012378225"
       y1="-0.02434949"
       x2="0.55083156"
       y2="0.52962703" />
    <linearGradient
       inkscape:collect="always"
       id="linearGradient4653">
      <stop
         style="stop-color:#000000;stop-opacity:1;"
         offset="0"
         id="stop4655" />
      <stop
         style="stop-color:#000000;stop-opacity:0;"
         offset="1"
         id="stop4657" />
    </linearGradient>
    <linearGradient
       inkscape:collect="always"
       xlink:href="#linearGradient4653"
       id="linearGradient4186"
       gradientUnits="userSpaceOnUse"
       x1="1.1583395"
       y1="1.0212729"
       x2="0.28891477"
       y2="0.34408274" />
    <linearGradient
       id="linearGradient3373"
       inkscape:collect="always">
      <stop
         id="stop3375"
         offset="0"
         style="stop-color:#f2f2f2;stop-opacity:1;" />
      <stop
         id="stop3377"
         offset="1"
         style="stop-color:#f2f2f2;stop-opacity:0;" />
    </linearGradient>
    <linearGradient
       inkscape:collect="always"
       xlink:href="#linearGradient3373"
       id="linearGradient4753"
       gradientUnits="userSpaceOnUse"
       gradientTransform="matrix(3.79942e-3,0,0,3.784158e-3,0.1484225,-0.771807)"
       x1="137.76368"
       y1="237.74885"
       x2="141.80429"
       y2="237.74885" />
    <linearGradient
       id="linearGradient3363"
       inkscape:collect="always">
      <stop
         id="stop3365"
         offset="0"
         style="stop-color:#f2f2f2;stop-opacity:1;" />
      <stop
         id="stop3367"
         offset="1"
         style="stop-color:#f2f2f2;stop-opacity:0;" />
    </linearGradient>
    <linearGradient
       inkscape:collect="always"
       xlink:href="#linearGradient3363"
       id="linearGradient4756"
       gradientUnits="userSpaceOnUse"
       gradientTransform="matrix(3.79942e-3,0,0,3.784158e-3,0.1484225,-0.771807)"
       x1="130.69261"
       y1="221.08133"
       x2="147.86521"
       y2="221.08133" />
    <linearGradient
       id="linearGradient3353"
       inkscape:collect="always">
      <stop
         id="stop3355"
         offset="0"
         style="stop-color:#f2f2f2;stop-opacity:1;" />
      <stop
         id="stop4708"
         offset="1"
         style="stop-color:#f2f2f2;stop-opacity:0;" />
    </linearGradient>
    <linearGradient
       inkscape:collect="always"
       xlink:href="#linearGradient3353"
       id="linearGradient4759"
       gradientUnits="userSpaceOnUse"
       gradientTransform="matrix(3.79942e-3,0,0,3.784158e-3,0.1484225,-0.771807)"
       x1="60.487013"
       y1="238.00139"
       x2="64.527623"
       y2="238.00139" />
    <linearGradient
       id="linearGradient3343"
       inkscape:collect="always">
      <stop
         id="stop3345"
         offset="0"
         style="stop-color:#f2f2f2;stop-opacity:1;" />
      <stop
         id="stop3347"
         offset="1"
         style="stop-color:#f2f2f2;stop-opacity:0;" />
    </linearGradient>
    <linearGradient
       inkscape:collect="always"
       xlink:href="#linearGradient3343"
       id="linearGradient4762"
       gradientUnits="userSpaceOnUse"
       gradientTransform="matrix(3.79942e-3,0,0,3.784158e-3,0.1484225,-0.771807)"
       x1="53.415945"
       y1="221.08133"
       x2="70.706362"
       y2="221.08133" />
    <inkscape:perspective
       sodipodi:type="inkscape:persp3d"
       inkscape:vp_x="0 : 526.18109 : 1"
       inkscape:vp_y="0 : 1000 : 0"
       inkscape:vp_z="744.09448 : 526.18109 : 1"
       inkscape:persp3d-origin="372.04724 : 350.78739 : 1"
       id="perspective3449" />
  </defs>
  <sodipodi:namedview
     id="base"
     pagecolor="#ffffff"
     bordercolor="#666666"
     borderopacity="1.0"
     gridtolerance="10000"
     guidetolerance="10"
     objecttolerance="10"
     inkscape:pageopacity="0.0"
     inkscape:pageshadow="2"
     inkscape:zoom="1.9296875"
     inkscape:cx="-21.498375"
     inkscape:cy="-16.366306"
     inkscape:document-units="px"
     inkscape:current-layer="layer1"
     showgrid="false"
     inkscape:window-width="1600"
     inkscape:window-height="1124"
     inkscape:window-x="0"
     inkscape:window-y="25" />
  <metadata
     id="metadata3446">
    <rdf:RDF>
      <cc:Work
         rdf:about="">
        <dc:format>image/svg+xml</dc:format>
        <dc:type
           rdf:resource="http://purl.org/dc/dcmitype/StillImage" />
      </cc:Work>
    </rdf:RDF>
  </metadata>
  <g
     inkscape:label="Layer 1"
     inkscape:groupmode="layer"
     id="layer1">
    <path
       sodipodi:type="arc"
       style="fill:#3d9bde;fill-opacity:0.71764706;fill-rule:evenodd;stroke:none;stroke-width:2;stroke-miterlimit:4;stroke-dasharray:none"
       id="path4118"
       sodipodi:cx="0.59724993"
       sodipodi:cy="0.62555832"
       sodipodi:rx="0.53535873"
       sodipodi:ry="0.53535873"
       d="M 1.1326087,0.62555832 A 0.53535873,0.53535873 0 1 1 0.061891198,0.62555832 A 0.53535873,0.53535873 0 1 1 1.1326087,0.62555832 z"
       transform="matrix(107.40462,0,0,107.40462,-0.1474048,-3.1878528)" />
    <path
       transform="matrix(107.40462,0,0,107.40462,-0.1474048,-3.1878528)"
       d="M 1.1326087,0.62555832 A 0.53535873,0.53535873 0 1 1 0.061891198,0.62555832 A 0.53535873,0.53535873 0 1 1 1.1326087,0.62555832 z"
       sodipodi:ry="0.53535873"
       sodipodi:rx="0.53535873"
       sodipodi:cy="0.62555832"
       sodipodi:cx="0.59724993"
       id="path4120"
       style="fill:url(#linearGradient4186);fill-opacity:1;fill-rule:evenodd;stroke:none;stroke-width:2;stroke-miterlimit:4;stroke-dasharray:none"
       sodipodi:type="arc" />
    <path
       transform="matrix(107.47611,0,0,107.47611,13.042035,15.291072)"
       id="path4122"
       d="M 0.53153847,0.20479905 C 0.46495011,0.20743509 0.38267536,0.24479857 0.31425332,0.3090471 C 0.20999115,0.40694962 0.17728899,0.53045965 0.24125527,0.584926 C 0.26689879,0.60676108 0.30426592,0.61435496 0.34647988,0.60909593 C 0.3496452,0.62485545 0.35709176,0.63834952 0.36918496,0.64864671 C 0.41707241,0.68942216 0.51915788,0.66310215 0.5972123,0.58980882 C 0.67526671,0.51651547 0.69978726,0.42404129 0.6518998,0.38326585 C 0.64777104,0.37975027 0.64335819,0.37676264 0.63847207,0.37423265 C 0.66056321,0.31545975 0.65558815,0.26139435 0.61894082,0.23018968 C 0.59695241,0.21146687 0.56641809,0.20341827 0.53153847,0.20479905 z"
       style="opacity:0.5;fill:url(#linearGradient4188);fill-opacity:1;fill-rule:evenodd;stroke:none;stroke-width:2;stroke-miterlimit:4;stroke-dasharray:none;filter:url(#filter4698)" />
    <path
       id="path4124"
       d="M 0.4696473,0.1305296 C 0.4030589,0.1331657 0.3207841,0.17052915 0.2523621,0.23477768 C 0.1480999,0.3326802 0.1153978,0.45619023 0.1793641,0.51065658 C 0.2050076,0.53249166 0.2423747,0.54008554 0.2845887,0.53482651 C 0.287754,0.55058603 0.2952005,0.5640801 0.3072937,0.57437729 C 0.3551812,0.61515274 0.4572667,0.58883273 0.5353211,0.5155394 C 0.6133755,0.44224605 0.637896,0.34977187 0.5900086,0.30899643 C 0.5858798,0.30548085 0.581467,0.30249322 0.5765809,0.29996323 C 0.598672,0.24119033 0.5936969,0.18712493 0.5570496,0.15592026 C 0.5350612,0.1371974 0.5045269,0.1291488 0.4696473,0.1305296 z"
       style="opacity:0.9;fill:url(#linearGradient4190);fill-opacity:1;fill-rule:evenodd;stroke:none;stroke-width:2;stroke-miterlimit:4;stroke-dasharray:none;filter:url(#filter4716)"
       transform="scale(128,128)" />
    <g
       transform="matrix(78.395562,-10.041571,-1.634521,81.113869,36.946438,-7.9566538)"
       id="g4126">
      <path
         sodipodi:nodetypes="cszss"
         id="path4128"
         d="M 0.46825232,1.2744783 C 0.46825232,1.2744783 0.36976766,1.2821444 0.32076339,1.2361539 C 0.27310436,1.191426 0.2072754,0.43326507 0.2540187,0.38949566 C 0.300762,0.34572624 0.4972203,0.47827432 0.4972203,0.47827432 C 0.5400217,0.57358374 0.42956082,1.1421139 0.46825232,1.2744783 z"
         style="fill:#ffcc00;fill-opacity:1;fill-rule:evenodd;stroke:none;stroke-width:2;stroke-miterlimit:4" />
      <path
         style="fill:#ffffff;fill-opacity:1;fill-rule:evenodd;stroke:none;stroke-width:2;stroke-miterlimit:4;filter:url(#filter6328)"
         d="M 0.42458799,1.2350298 C 0.42458799,1.2350298 0.40035907,1.2652095 0.36077656,1.2423566 C 0.30091218,1.1373087 0.28469521,0.97405588 0.31190441,0.93436658 C 0.35148692,0.91151358 0.42681352,0.96283507 0.42681352,0.96283507 C 0.45739308,1.0309291 0.39694476,1.1404617 0.42458799,1.2350298 z"
         id="path4130"
         sodipodi:nodetypes="ccccc" />
    </g>
    <g
       id="g3457">
      <g
         transform="matrix(-70.184032,9.444278,-10.337479,-106.64201,64.327553,114.06884)"
         id="g4138">
        <path
           transform="matrix(0.8185471,0,0,0.8185471,0.803139,-0.2222915)"
           style="fill:#ffcc00;fill-opacity:1;fill-rule:evenodd;stroke:none;stroke-width:2;stroke-miterlimit:4"
           d="M 0.030945599,0.88240677 C 0.030945605,0.99496539 -0.24319132,1.1368358 -0.24319132,1.1368358 C -0.24319132,1.1368358 -0.52143325,1.3138814 -0.61891185,1.2576021 C -0.71639045,1.2013228 -0.36245167,0.91187353 -0.36245167,0.91187353 C -0.36245167,0.91187353 -0.71639046,0.5634907 -0.61891185,0.5072114 C -0.52143323,0.45093209 -0.26190408,0.62129462 -0.26190408,0.62129462 C -0.26190408,0.62129462 0.030945593,0.76984816 0.030945599,0.88240677 z"
           id="path4140"
           sodipodi:nodetypes="ccscscs" />
        <path
           transform="matrix(0.6756899,0,0,0.6756899,0.7410268,-9.6233346e-2)"
           d="M 0.030945599,0.88240677 L -0.20991694,0.9444012 L -0.61891185,1.2576021 L -0.55216933,1.0180119 L -0.61891185,0.5072114 L -0.44479183,0.68480726 L 0.030945599,0.88240677 z"
           inkscape:randomized="0"
           inkscape:rounded="0"
           inkscape:flatsided="false"
           sodipodi:arg2="0.31174893"
           sodipodi:arg1="0"
           sodipodi:r2="0.20211814"
           sodipodi:r1="0.4332383"
           sodipodi:cy="0.88240677"
           sodipodi:cx="-0.4022927"
           sodipodi:sides="3"
           id="path4142"
           style="opacity:1;fill:#ffffff;fill-opacity:1;fill-rule:evenodd;stroke:none;stroke-width:2;stroke-miterlimit:4;stroke-dasharray:none;filter:url(#filter4780)"
           sodipodi:type="star" />
      </g>
    </g>
    <g
       id="g3462"
       transform="matrix(-0.9988128,-4.8713311e-2,4.8713311e-2,-0.9988128,124.0378,130.69323)">
      <g
         id="g3464"
         transform="matrix(-70.184032,9.444278,-10.337479,-106.64201,64.327553,114.06884)">
        <path
           sodipodi:nodetypes="ccscscs"
           id="path3466"
           d="M 0.030945599,0.88240677 C 0.030945605,0.99496539 -0.24319132,1.1368358 -0.24319132,1.1368358 C -0.24319132,1.1368358 -0.52143325,1.3138814 -0.61891185,1.2576021 C -0.71639045,1.2013228 -0.36245167,0.91187353 -0.36245167,0.91187353 C -0.36245167,0.91187353 -0.71639046,0.5634907 -0.61891185,0.5072114 C -0.52143323,0.45093209 -0.26190408,0.62129462 -0.26190408,0.62129462 C -0.26190408,0.62129462 0.030945593,0.76984816 0.030945599,0.88240677 z"
           style="fill:#ffcc00;fill-opacity:1;fill-rule:evenodd;stroke:none;stroke-width:2;stroke-miterlimit:4"
           transform="matrix(0.8185471,0,0,0.8185471,0.803139,-0.2222915)" />
        <path
           sodipodi:type="star"
           style="opacity:1;fill:#ffffff;fill-opacity:1;fill-rule:evenodd;stroke:none;stroke-width:2;stroke-miterlimit:4;stroke-dasharray:none;filter:url(#filter4780)"
           id="path3468"
           sodipodi:sides="3"
           sodipodi:cx="-0.4022927"
           sodipodi:cy="0.88240677"
           sodipodi:r1="0.4332383"
           sodipodi:r2="0.20211814"
           sodipodi:arg1="0"
           sodipodi:arg2="0.31174893"
           inkscape:flatsided="false"
           inkscape:rounded="0"
           inkscape:randomized="0"
           d="M 0.030945599,0.88240677 L -0.20991694,0.9444012 L -0.61891185,1.2576021 L -0.55216933,1.0180119 L -0.61891185,0.5072114 L -0.44479183,0.68480726 L 0.030945599,0.88240677 z"
           transform="matrix(0.6756899,0,0,0.6756899,0.7410268,-9.6233346e-2)" />
      </g>
    </g>
    <g
       id="g3470"
       transform="matrix(58.752183,-7.5254798,-1.2249632,60.789371,60.012806,20.837107)">
      <path
         style="fill:#ffcc00;fill-opacity:1;fill-rule:evenodd;stroke:none;stroke-width:2;stroke-miterlimit:4"
         d="M 0.46791845,1.258465 C 0.46791845,1.258465 0.40019198,1.3146603 0.35118771,1.2686698 C 0.30352868,1.2239419 0.26909214,1.1788218 0.31583544,1.1350524 C 0.36257874,1.0912829 0.42846703,1.1437792 0.42846703,1.1437792 C 0.47126843,1.2390886 0.42922695,1.1261006 0.46791845,1.258465 z"
         id="path3472"
         sodipodi:nodetypes="cszss" />
      <path
         sodipodi:nodetypes="ccccc"
         id="path3474"
         d="M 0.42458799,1.2350298 C 0.42458799,1.2350298 0.40035907,1.2652095 0.36077656,1.2423566 C 0.30091218,1.1373087 0.25603203,1.1845316 0.28324123,1.1448423 C 0.32282374,1.1219893 0.42107918,1.1633717 0.42107918,1.1633717 C 0.45165874,1.2314658 0.39694476,1.1404617 0.42458799,1.2350298 z"
         style="fill:#ffffff;fill-opacity:1;fill-rule:evenodd;stroke:none;stroke-width:2;stroke-miterlimit:4;filter:url(#filter6328)" />
    </g>
    <g
       transform="matrix(59.390652,-7.6072603,-1.238275,61.449978,28.326602,19.76002)"
       id="g3476">
      <path
         sodipodi:nodetypes="cszss"
         id="path3478"
         d="M 0.46791845,1.258465 C 0.46791845,1.258465 0.40019198,1.3146603 0.35118771,1.2686698 C 0.30352868,1.2239419 0.26909214,1.1788218 0.31583544,1.1350524 C 0.36257874,1.0912829 0.42846703,1.1437792 0.42846703,1.1437792 C 0.47126843,1.2390886 0.42922695,1.1261006 0.46791845,1.258465 z"
         style="fill:#ffcc00;fill-opacity:1;fill-rule:evenodd;stroke:none;stroke-width:2;stroke-miterlimit:4" />
      <path
         style="fill:#ffffff;fill-opacity:1;fill-rule:evenodd;stroke:none;stroke-width:2;stroke-miterlimit:4;filter:url(#filter6328)"
         d="M 0.42458799,1.2350298 C 0.42458799,1.2350298 0.40035907,1.2652095 0.36077656,1.2423566 C 0.30091218,1.1373087 0.31567873,1.1919156 0.34288793,1.1522263 C 0.38247044,1.1293733 0.44638689,1.1090057 0.44638689,1.1090057 C 0.47696645,1.1770998 0.39694476,1.1404617 0.42458799,1.2350298 z"
         id="path3480"
         sodipodi:nodetypes="ccccc" />
    </g>
  </g>
</svg>
