<?xml version="1.0" encoding="UTF-8" standalone="no"?>
<!-- Created with Inkscape (http://www.inkscape.org/) -->
<svg
   xmlns:dc="http://purl.org/dc/elements/1.1/"
   xmlns:cc="http://creativecommons.org/ns#"
   xmlns:rdf="http://www.w3.org/1999/02/22-rdf-syntax-ns#"
   xmlns:svg="http://www.w3.org/2000/svg"
   xmlns="http://www.w3.org/2000/svg"
   xmlns:xlink="http://www.w3.org/1999/xlink"
   xmlns:sodipodi="http://sodipodi.sourceforge.net/DTD/sodipodi-0.dtd"
   xmlns:inkscape="http://www.inkscape.org/namespaces/inkscape"
   width="128"
   height="128"
   id="svg3441"
   sodipodi:version="0.32"
   inkscape:version="0.46"
   version="1.0"
   sodipodi:docname="edit_add.svg"
   inkscape:output_extension="org.inkscape.output.svg.inkscape">
  <defs
     id="defs3443">
    <filter
       inkscape:collect="always"
       id="filter4079"
       x="-0.2506667"
       width="1.5013334"
       y="-0.23020405"
       height="1.4604081">
      <feGaussianBlur
         inkscape:collect="always"
         stdDeviation="0.032516929"
         id="feGaussianBlur4081" />
    </filter>
    <filter
       inkscape:collect="always"
       id="filter4716">
      <feGaussianBlur
         inkscape:collect="always"
         stdDeviation="0.0069827863"
         id="feGaussianBlur4718" />
    </filter>
    <linearGradient
       inkscape:collect="always"
       xlink:href="#linearGradient4666"
       id="linearGradient4101"
       gradientUnits="userSpaceOnUse"
       x1="-0.012378225"
       y1="-0.02434949"
       x2="0.55083156"
       y2="0.52962703"
       gradientTransform="translate(0.540201,0.5603015)" />
    <filter
       inkscape:collect="always"
       id="filter4698">
      <feGaussianBlur
         inkscape:collect="always"
         stdDeviation="0.011637977"
         id="feGaussianBlur4700" />
    </filter>
    <linearGradient
       inkscape:collect="always"
       id="linearGradient4666">
      <stop
         style="stop-color:#ffffff;stop-opacity:1;"
         offset="0"
         id="stop4668" />
      <stop
         style="stop-color:#ffffff;stop-opacity:0;"
         offset="1"
         id="stop4670" />
    </linearGradient>
    <linearGradient
       inkscape:collect="always"
       xlink:href="#linearGradient4666"
       id="linearGradient4103"
       gradientUnits="userSpaceOnUse"
       gradientTransform="translate(6.1891184e-2,7.4269421e-2)"
       x1="-0.012378225"
       y1="-0.02434949"
       x2="0.55083156"
       y2="0.52962703" />
    <linearGradient
       inkscape:collect="always"
       id="linearGradient4653">
      <stop
         style="stop-color:#000000;stop-opacity:1;"
         offset="0"
         id="stop4655" />
      <stop
         style="stop-color:#000000;stop-opacity:0;"
         offset="1"
         id="stop4657" />
    </linearGradient>
    <linearGradient
       inkscape:collect="always"
       xlink:href="#linearGradient4653"
       id="linearGradient4105"
       gradientUnits="userSpaceOnUse"
       x1="1.1583395"
       y1="1.0212729"
       x2="0.28891477"
       y2="0.34408274" />
    <filter
       inkscape:collect="always"
       id="filter7825"
       x="-0.23720191"
       width="1.4744038"
       y="-0.24468058"
       height="1.4893612">
      <feGaussianBlur
         inkscape:collect="always"
         stdDeviation="35.473771"
         id="feGaussianBlur7827" />
    </filter>
    <linearGradient
       id="linearGradient14625">
      <stop
         style="stop-color:#ffffff;stop-opacity:1.0000000;"
         offset="0.0000000"
         id="stop14626" />
      <stop
         style="stop-color:#ffffff;stop-opacity:0;"
         offset="1"
         id="stop14627" />
    </linearGradient>
    <linearGradient
       id="linearGradient26051">
      <stop
         style="stop-color:#ffffff;stop-opacity:0.44927537;"
         offset="0.0000000"
         id="stop26052" />
      <stop
         style="stop-color:#ffffff;stop-opacity:0;"
         offset="1"
         id="stop26053" />
    </linearGradient>
    <linearGradient
       id="linearGradient29186">
      <stop
         style="stop-color:#ffffff;stop-opacity:1.0000000;"
         offset="0.0000000"
         id="stop29187" />
      <stop
         style="stop-color:#ffffff;stop-opacity:0;"
         offset="1"
         id="stop29188" />
    </linearGradient>
    <linearGradient
       id="linearGradient17250">
      <stop
         style="stop-color:#dc0000;stop-opacity:1.0000000;"
         offset="0.0000000"
         id="stop17251" />
      <stop
         style="stop-color:#ffb200;stop-opacity:1.0000000;"
         offset="1.0000000"
         id="stop17252" />
    </linearGradient>
    <linearGradient
       id="linearGradient19763">
      <stop
         id="stop19764"
         offset="0"
         style="stop-color:#929292;stop-opacity:1;" />
      <stop
         id="stop19765"
         offset="1.0000000"
         style="stop-color:#ffffff;stop-opacity:0.0000000;" />
    </linearGradient>
    <inkscape:perspective
       sodipodi:type="inkscape:persp3d"
       inkscape:vp_x="0 : 526.18109 : 1"
       inkscape:vp_y="0 : 1000 : 0"
       inkscape:vp_z="744.09448 : 526.18109 : 1"
       inkscape:persp3d-origin="372.04724 : 350.78739 : 1"
       id="perspective3449" />
  </defs>
  <sodipodi:namedview
     id="base"
     pagecolor="#ffffff"
     bordercolor="#666666"
     borderopacity="1.0"
     gridtolerance="10000"
     guidetolerance="10"
     objecttolerance="10"
     inkscape:pageopacity="0.0"
     inkscape:pageshadow="2"
     inkscape:zoom="3.859375"
     inkscape:cx="64"
     inkscape:cy="64"
     inkscape:document-units="px"
     inkscape:current-layer="layer1"
     showgrid="false"
     inkscape:window-width="1019"
     inkscape:window-height="722"
     inkscape:window-x="237"
     inkscape:window-y="117" />
  <metadata
     id="metadata3446">
    <rdf:RDF>
      <cc:Work
         rdf:about="">
        <dc:format>image/svg+xml</dc:format>
        <dc:type
           rdf:resource="http://purl.org/dc/dcmitype/StillImage" />
      </cc:Work>
    </rdf:RDF>
  </metadata>
  <g
     inkscape:label="Layer 1"
     inkscape:groupmode="layer"
     id="layer1">
    <g
       id="g4107"
       transform="matrix(128,0,0,128,-69.145725,-71.718593)">
      <path
         sodipodi:type="arc"
         style="fill:#3d9bde;fill-opacity:0.71764706;fill-rule:evenodd;stroke:none;stroke-width:2;stroke-miterlimit:4;stroke-dasharray:none"
         id="path3229"
         sodipodi:cx="0.59724993"
         sodipodi:cy="0.62555832"
         sodipodi:rx="0.53535873"
         sodipodi:ry="0.53535873"
         d="M 1.1326087,0.62555832 A 0.53535873,0.53535873 0 1 1 0.061891198,0.62555832 A 0.53535873,0.53535873 0 1 1 1.1326087,0.62555832 z"
         transform="matrix(0.8390986,0,0,0.8390986,0.5390494,0.5353964)" />
      <path
         transform="matrix(0.8390986,0,0,0.8390986,0.5390494,0.5353964)"
         d="M 1.1326087,0.62555832 A 0.53535873,0.53535873 0 1 1 0.061891198,0.62555832 A 0.53535873,0.53535873 0 1 1 1.1326087,0.62555832 z"
         sodipodi:ry="0.53535873"
         sodipodi:rx="0.53535873"
         sodipodi:cy="0.62555832"
         sodipodi:cx="0.59724993"
         id="path3231"
         style="fill:url(#linearGradient4105);fill-opacity:1;fill-rule:evenodd;stroke:none;stroke-width:2;stroke-miterlimit:4;stroke-dasharray:none"
         sodipodi:type="arc" />
      <path
         transform="matrix(0.8396571,0,0,0.8396571,0.6420919,0.679763)"
         id="path3233"
         d="M 0.53153847,0.20479905 C 0.46495011,0.20743509 0.38267536,0.24479857 0.31425332,0.3090471 C 0.20999115,0.40694962 0.17728899,0.53045965 0.24125527,0.584926 C 0.26689879,0.60676108 0.30426592,0.61435496 0.34647988,0.60909593 C 0.3496452,0.62485545 0.35709176,0.63834952 0.36918496,0.64864671 C 0.41707241,0.68942216 0.51915788,0.66310215 0.5972123,0.58980882 C 0.67526671,0.51651547 0.69978726,0.42404129 0.6518998,0.38326585 C 0.64777104,0.37975027 0.64335819,0.37676264 0.63847207,0.37423265 C 0.66056321,0.31545975 0.65558815,0.26139435 0.61894082,0.23018968 C 0.59695241,0.21146687 0.56641809,0.20341827 0.53153847,0.20479905 z"
         style="opacity:0.5;fill:url(#linearGradient4103);fill-opacity:1;fill-rule:evenodd;stroke:none;stroke-width:2;stroke-miterlimit:4;stroke-dasharray:none;filter:url(#filter4698)" />
      <path
         id="path3235"
         d="M 1.0098483,0.69083121 C 0.9432599,0.69346721 0.8609852,0.73083071 0.7925631,0.79507923 C 0.6883009,0.89298175 0.6555988,1.0164918 0.7195651,1.0709581 C 0.7452086,1.0927932 0.7825757,1.1003871 0.8247897,1.0951281 C 0.827955,1.1108876 0.8354016,1.1243816 0.8474948,1.1346788 C 0.8953822,1.1754543 0.9974677,1.1491343 1.0755221,1.0758409 C 1.1535765,1.0025476 1.1780971,0.91007342 1.1302096,0.86929798 C 1.1260808,0.8657824 1.121668,0.86279477 1.1167819,0.86026478 C 1.138873,0.80149188 1.1338979,0.74742651 1.0972506,0.71622181 C 1.0752622,0.69749901 1.0447279,0.68945041 1.0098483,0.69083121 z"
         style="opacity:0.9;fill:url(#linearGradient4101);fill-opacity:1;fill-rule:evenodd;stroke:none;stroke-width:2;stroke-miterlimit:4;stroke-dasharray:none;filter:url(#filter4716)" />
      <g
         transform="translate(0.540201,0.5603015)"
         id="g4083">
        <path
           style="fill:#ffcc00;fill-opacity:1;fill-rule:evenodd;stroke:none;stroke-width:2;stroke-miterlimit:4"
           d="M 63.15625,34.90625 C 58.859979,34.895 55.437499,36.218749 55.4375,36.21875 C 56.979951,41.495507 56.913452,47.540301 56.28125,53.75 C 48.960042,52.738427 42.332654,52.323394 37.625,54.4375 C 37.625,54.4375 32.37445,64.189717 36.46875,71.28125 C 38.972325,72.997587 45.576457,74.132193 53.375,74.6875 C 52.677485,80.814142 52.614215,86.314943 54.4375,90.375 C 54.4375,90.375 64.189721,95.625553 71.28125,91.53125 C 72.988338,89.041166 74.128678,82.49333 74.6875,74.75 C 82.177247,74.221378 88.506767,73.076723 91.0625,71.28125 C 95.156794,64.189717 91.781248,55.437499 91.78125,55.4375 C 86.70202,56.922212 80.902986,56.908846 74.9375,56.34375 C 74.521776,47.547673 73.316398,39.834393 71.28125,36.9375 C 68.621925,35.40214 65.734013,34.913 63.15625,34.90625 z"
           transform="scale(7.8125e-3,7.8125e-3)"
           id="path3298" />
        <path
           id="path3307"
           d="M 0.49548052,0.33049388 C 0.47249122,0.33042834 0.45417757,0.33814073 0.45417757,0.33814074 C 0.46243121,0.36888404 0.46207537,0.40410207 0.45869247,0.44028086 C 0.41951676,0.43438726 0.38405368,0.4319692 0.35886308,0.44428635 C 0.35886308,0.44428635 0.33076744,0.50110447 0.35267599,0.54242098 C 0.3660726,0.55242065 0.40141124,0.55903107 0.44314116,0.56226638 C 0.43940876,0.59796126 0.4390702,0.63000989 0.44882658,0.65366449 C 0.44882658,0.65366449 0.50101062,0.68425512 0.5389573,0.66040101 C 0.54809192,0.64589334 0.55419386,0.6077445 0.55718411,0.56263052 C 0.59726167,0.55955067 0.63113086,0.55288171 0.64480656,0.54242098 C 0.66671509,0.50110447 0.64865257,0.45011251 0.64865259,0.45011252 C 0.62147368,0.45876272 0.59044312,0.45868484 0.55852186,0.45539249 C 0.55629733,0.40414502 0.54984736,0.3592061 0.5389573,0.34232829 C 0.52472729,0.33338302 0.5092741,0.33053321 0.49548052,0.33049388 z"
           style="fill:#ffffff;fill-opacity:1;fill-rule:evenodd;stroke:none;stroke-width:2;stroke-miterlimit:4;filter:url(#filter4079)" />
      </g>
    </g>
  </g>
</svg>
