<?xml version="1.0" encoding="UTF-8" standalone="no"?>
<!-- Created with Inkscape (http://www.inkscape.org/) -->
<svg
   xmlns:dc="http://purl.org/dc/elements/1.1/"
   xmlns:cc="http://creativecommons.org/ns#"
   xmlns:rdf="http://www.w3.org/1999/02/22-rdf-syntax-ns#"
   xmlns:svg="http://www.w3.org/2000/svg"
   xmlns="http://www.w3.org/2000/svg"
   xmlns:xlink="http://www.w3.org/1999/xlink"
   xmlns:sodipodi="http://sodipodi.sourceforge.net/DTD/sodipodi-0.dtd"
   xmlns:inkscape="http://www.inkscape.org/namespaces/inkscape"
   width="128"
   height="128"
   id="svg3441"
   sodipodi:version="0.32"
   inkscape:version="0.46"
   version="1.0"
   sodipodi:docname="hub.svg"
   inkscape:output_extension="org.inkscape.output.svg.inkscape">
  <defs
     id="defs3443">
    <filter
       inkscape:collect="always"
       id="filter4079"
       x="-0.2506667"
       width="1.5013334"
       y="-0.23020405"
       height="1.4604081">
      <feGaussianBlur
         inkscape:collect="always"
         stdDeviation="0.032516929"
         id="feGaussianBlur4081" />
    </filter>
    <linearGradient
       inkscape:collect="always"
       xlink:href="#linearGradient4666"
       id="linearGradient3535"
       gradientUnits="userSpaceOnUse"
       x1="-0.012378225"
       y1="-0.02434949"
       x2="0.55083156"
       y2="0.52962703" />
    <linearGradient
       inkscape:collect="always"
       xlink:href="#linearGradient4666"
       id="linearGradient3533"
       gradientUnits="userSpaceOnUse"
       gradientTransform="translate(6.1891184e-2,7.4269421e-2)"
       x1="-0.012378225"
       y1="-0.02434949"
       x2="0.55083156"
       y2="0.52962703" />
    <linearGradient
       inkscape:collect="always"
       xlink:href="#linearGradient4653"
       id="linearGradient3531"
       gradientUnits="userSpaceOnUse"
       x1="1.1583395"
       y1="1.0212729"
       x2="0.28891477"
       y2="0.34408274" />
    <filter
       inkscape:collect="always"
       id="filter4780"
       x="-0.25856406"
       width="1.5171281"
       y="-0.22392305"
       height="1.4478461">
      <feGaussianBlur
         inkscape:collect="always"
         stdDeviation="0.070012409"
         id="feGaussianBlur4782" />
    </filter>
    <filter
       inkscape:collect="always"
       id="filter6328"
       x="-0.4345457"
       width="1.8690914"
       y="-0.16578031"
       height="1.3315606">
      <feGaussianBlur
         inkscape:collect="always"
         stdDeviation="0.022430427"
         id="feGaussianBlur6330" />
    </filter>
    <filter
       inkscape:collect="always"
       id="filter4716">
      <feGaussianBlur
         inkscape:collect="always"
         stdDeviation="0.0069827863"
         id="feGaussianBlur4718" />
    </filter>
    <linearGradient
       inkscape:collect="always"
       xlink:href="#linearGradient4666"
       id="linearGradient3016"
       gradientUnits="userSpaceOnUse"
       x1="-0.012378225"
       y1="-0.02434949"
       x2="0.55083156"
       y2="0.52962703"
       gradientTransform="translate(-1.6700512,-1.1512693)" />
    <filter
       inkscape:collect="always"
       id="filter4698">
      <feGaussianBlur
         inkscape:collect="always"
         stdDeviation="0.011637977"
         id="feGaussianBlur4700" />
    </filter>
    <linearGradient
       inkscape:collect="always"
       id="linearGradient4666">
      <stop
         style="stop-color:#ffffff;stop-opacity:1;"
         offset="0"
         id="stop4668" />
      <stop
         style="stop-color:#ffffff;stop-opacity:0;"
         offset="1"
         id="stop4670" />
    </linearGradient>
    <linearGradient
       inkscape:collect="always"
       xlink:href="#linearGradient4666"
       id="linearGradient2972"
       gradientUnits="userSpaceOnUse"
       gradientTransform="translate(6.1891184e-2,7.4269421e-2)"
       x1="-0.012378225"
       y1="-0.02434949"
       x2="0.55083156"
       y2="0.52962703" />
    <linearGradient
       inkscape:collect="always"
       id="linearGradient4653">
      <stop
         style="stop-color:#000000;stop-opacity:1;"
         offset="0"
         id="stop4655" />
      <stop
         style="stop-color:#000000;stop-opacity:0;"
         offset="1"
         id="stop4657" />
    </linearGradient>
    <linearGradient
       inkscape:collect="always"
       xlink:href="#linearGradient4653"
       id="linearGradient2970"
       gradientUnits="userSpaceOnUse"
       x1="1.1583395"
       y1="1.0212729"
       x2="0.28891477"
       y2="0.34408274" />
    <linearGradient
       id="linearGradient3515"
       x1="17.505895"
       y1="24.930641"
       x2="31.107695"
       y2="24.930641"
       gradientUnits="userSpaceOnUse">
      <stop
         style="stop-color:#f20000;stop-opacity:0.96078432;"
         offset="0"
         id="stop3517" />
      <stop
         style="stop-color:#000000;stop-opacity:0;"
         offset="1"
         id="stop3519" />
    </linearGradient>
    <linearGradient
       id="linearGradient6240"
       gradientTransform="scale(1.0928942,0.9150017)"
       x1="23.961606"
       y1="-40.795691"
       x2="130.41633"
       y2="-40.795691"
       gradientUnits="userSpaceOnUse">
      <stop
         style="stop-color:#1f5fe1;stop-opacity:0.96078432;"
         offset="0"
         id="stop6242" />
      <stop
         style="stop-color:#3d9bde;stop-opacity:0;"
         offset="1"
         id="stop6244" />
    </linearGradient>
    <linearGradient
       id="linearGradient6190">
      <stop
         style="stop-color:#a0670c;stop-opacity:1;"
         offset="0"
         id="stop6192" />
      <stop
         style="stop-color:#e6c99d;stop-opacity:1;"
         offset="1"
         id="stop6194" />
    </linearGradient>
    <filter
       inkscape:collect="always"
       id="filter7825"
       x="-0.23720191"
       width="1.4744038"
       y="-0.24468058"
       height="1.4893612">
      <feGaussianBlur
         inkscape:collect="always"
         stdDeviation="35.473771"
         id="feGaussianBlur7827" />
    </filter>
    <linearGradient
       id="linearGradient14625">
      <stop
         style="stop-color:#ffffff;stop-opacity:1.0000000;"
         offset="0.0000000"
         id="stop14626" />
      <stop
         style="stop-color:#ffffff;stop-opacity:0;"
         offset="1"
         id="stop14627" />
    </linearGradient>
    <linearGradient
       id="linearGradient26051">
      <stop
         style="stop-color:#ffffff;stop-opacity:0.44927537;"
         offset="0.0000000"
         id="stop26052" />
      <stop
         style="stop-color:#ffffff;stop-opacity:0;"
         offset="1"
         id="stop26053" />
    </linearGradient>
    <linearGradient
       id="linearGradient29186">
      <stop
         style="stop-color:#ffffff;stop-opacity:1.0000000;"
         offset="0.0000000"
         id="stop29187" />
      <stop
         style="stop-color:#ffffff;stop-opacity:0;"
         offset="1"
         id="stop29188" />
    </linearGradient>
    <linearGradient
       id="linearGradient17250">
      <stop
         style="stop-color:#dc0000;stop-opacity:1.0000000;"
         offset="0.0000000"
         id="stop17251" />
      <stop
         style="stop-color:#ffb200;stop-opacity:1.0000000;"
         offset="1.0000000"
         id="stop17252" />
    </linearGradient>
    <linearGradient
       id="linearGradient19763">
      <stop
         id="stop19764"
         offset="0"
         style="stop-color:#929292;stop-opacity:1;" />
      <stop
         id="stop19765"
         offset="1.0000000"
         style="stop-color:#ffffff;stop-opacity:0.0000000;" />
    </linearGradient>
    <inkscape:perspective
       sodipodi:type="inkscape:persp3d"
       inkscape:vp_x="0 : 526.18109 : 1"
       inkscape:vp_y="0 : 1000 : 0"
       inkscape:vp_z="744.09448 : 526.18109 : 1"
       inkscape:persp3d-origin="372.04724 : 350.78739 : 1"
       id="perspective3449" />
  </defs>
  <sodipodi:namedview
     id="base"
     pagecolor="#ffffff"
     bordercolor="#666666"
     borderopacity="1.0"
     gridtolerance="10000"
     guidetolerance="10"
     objecttolerance="10"
     inkscape:pageopacity="0.0"
     inkscape:pageshadow="2"
     inkscape:zoom="3.859375"
     inkscape:cx="64"
     inkscape:cy="64"
     inkscape:document-units="px"
     inkscape:current-layer="layer1"
     showgrid="false"
     inkscape:window-width="1019"
     inkscape:window-height="722"
     inkscape:window-x="237"
     inkscape:window-y="117" />
  <metadata
     id="metadata3446">
    <rdf:RDF>
      <cc:Work
         rdf:about="">
        <dc:format>image/svg+xml</dc:format>
        <dc:type
           rdf:resource="http://purl.org/dc/dcmitype/StillImage" />
      </cc:Work>
    </rdf:RDF>
  </metadata>
  <g
     inkscape:label="Layer 1"
     inkscape:groupmode="layer"
     id="layer1">
    <g
       id="g3523"
       transform="scale(128,128)">
      <path
         transform="matrix(0.8390986,0,0,0.8390986,-1.1516e-3,-2.49051e-2)"
         d="M 1.1326087,0.62555832 A 0.53535873,0.53535873 0 1 1 0.061891198,0.62555832 A 0.53535873,0.53535873 0 1 1 1.1326087,0.62555832 z"
         sodipodi:ry="0.53535873"
         sodipodi:rx="0.53535873"
         sodipodi:cy="0.62555832"
         sodipodi:cx="0.59724993"
         id="path2706"
         style="fill:#3d9bde;fill-opacity:0.71764706;fill-rule:evenodd;stroke:none;stroke-width:2;stroke-miterlimit:4;stroke-dasharray:none"
         sodipodi:type="arc" />
      <path
         sodipodi:type="arc"
         style="fill:url(#linearGradient3531);fill-opacity:1;fill-rule:evenodd;stroke:none;stroke-width:2;stroke-miterlimit:4;stroke-dasharray:none"
         id="path2708"
         sodipodi:cx="0.59724993"
         sodipodi:cy="0.62555832"
         sodipodi:rx="0.53535873"
         sodipodi:ry="0.53535873"
         d="M 1.1326087,0.62555832 A 0.53535873,0.53535873 0 1 1 0.061891198,0.62555832 A 0.53535873,0.53535873 0 1 1 1.1326087,0.62555832 z"
         transform="matrix(0.8390986,0,0,0.8390986,-1.1516e-3,-2.49051e-2)" />
      <path
         style="opacity:0.5;fill:url(#linearGradient3533);fill-opacity:1;fill-rule:evenodd;stroke:none;stroke-width:2;stroke-miterlimit:4;stroke-dasharray:none;filter:url(#filter4698)"
         d="M 0.53153847,0.20479905 C 0.46495011,0.20743509 0.38267536,0.24479857 0.31425332,0.3090471 C 0.20999115,0.40694962 0.17728899,0.53045965 0.24125527,0.584926 C 0.26689879,0.60676108 0.30426592,0.61435496 0.34647988,0.60909593 C 0.3496452,0.62485545 0.35709176,0.63834952 0.36918496,0.64864671 C 0.41707241,0.68942216 0.51915788,0.66310215 0.5972123,0.58980882 C 0.67526671,0.51651547 0.69978726,0.42404129 0.6518998,0.38326585 C 0.64777104,0.37975027 0.64335819,0.37676264 0.63847207,0.37423265 C 0.66056321,0.31545975 0.65558815,0.26139435 0.61894082,0.23018968 C 0.59695241,0.21146687 0.56641809,0.20341827 0.53153847,0.20479905 z"
         id="path2710"
         transform="matrix(0.8396571,0,0,0.8396571,0.1018909,0.1194615)" />
      <path
         style="opacity:0.9;fill:url(#linearGradient3535);fill-opacity:1;fill-rule:evenodd;stroke:none;stroke-width:2;stroke-miterlimit:4;stroke-dasharray:none;filter:url(#filter4716)"
         d="M 0.4696473,0.13052971 C 0.4030589,0.13316571 0.3207842,0.17052921 0.2523621,0.23477773 C 0.1480999,0.33268025 0.1153978,0.4561903 0.1793641,0.5106566 C 0.2050076,0.5324917 0.2423747,0.5400856 0.2845887,0.5348266 C 0.287754,0.5505861 0.2952006,0.5640801 0.3072938,0.5743773 C 0.3551812,0.6151528 0.4572667,0.5888328 0.5353211,0.5155394 C 0.6133755,0.4422461 0.6378961,0.34977192 0.5900086,0.30899648 C 0.5858798,0.3054809 0.581467,0.30249327 0.5765809,0.29996328 C 0.598672,0.24119038 0.5936969,0.18712501 0.5570496,0.15592031 C 0.5350612,0.13719751 0.5045269,0.12914891 0.4696473,0.13052971 z"
         id="path2712" />
      <path
         style="fill:#ffcc00;fill-opacity:1;fill-rule:evenodd;stroke:#f50000;stroke-width:0.0390625;stroke-linejoin:round;stroke-miterlimit:4;stroke-dasharray:none;stroke-opacity:0.96078431"
         d="M 0.70394106,0.27554963 C 0.67313139,0.2430741 0.63891825,0.22716091 0.63891825,0.22716093 C 0.61172265,0.27821546 0.5673857,0.32287781 0.5177847,0.36450716 C 0.47248294,0.30175138 0.42784165,0.24868366 0.37865324,0.22898613 C 0.37865324,0.22898613 0.27014192,0.26226367 0.24812742,0.34611683 C 0.25367566,0.377816 0.29292877,0.43608468 0.34497319,0.49903031 C 0.29550521,0.53954668 0.25513848,0.58016892 0.23879009,0.62425021 C 0.23879009,0.62425021 0.27081496,0.73700603 0.35151164,0.75988159 C 0.38185317,0.7541474 0.43756121,0.71382273 0.49776205,0.66018161 C 0.55545074,0.71270051 0.6092668,0.75186925 0.64067047,0.75772316 C 0.72156306,0.73560742 0.76079491,0.64476545 0.76079491,0.64476547 C 0.71350142,0.61756395 0.67190186,0.57374261 0.63310862,0.52454407 C 0.69394057,0.4556898 0.74123832,0.38897211 0.74762388,0.35198408 C 0.73964267,0.32046281 0.72242686,0.29503496 0.70394106,0.27554963 z"
         id="path2716" />
      <path
         transform="matrix(0.9203528,0.9650484,-0.9287211,0.9563527,0.5030984,-0.4614154)"
         id="path2718"
         d="M 0.49548052,0.33049388 C 0.47249122,0.33042834 0.45417757,0.33814073 0.45417757,0.33814074 C 0.46243121,0.36888404 0.46207537,0.40410207 0.45869247,0.44028086 C 0.41951676,0.43438726 0.38405368,0.4319692 0.35886308,0.44428635 C 0.35886308,0.44428635 0.33076744,0.50110447 0.35267599,0.54242098 C 0.3660726,0.55242065 0.40141124,0.55903107 0.44314116,0.56226638 C 0.43940876,0.59796126 0.4390702,0.63000989 0.44882658,0.65366449 C 0.44882658,0.65366449 0.50101062,0.68425512 0.5389573,0.66040101 C 0.54809192,0.64589334 0.55419386,0.6077445 0.55718411,0.56263052 C 0.59726167,0.55955067 0.63113086,0.55288171 0.64480656,0.54242098 C 0.66671509,0.50110447 0.64865257,0.45011251 0.64865259,0.45011252 C 0.62147368,0.45876272 0.59044312,0.45868484 0.55852186,0.45539249 C 0.55629733,0.40414502 0.54984736,0.3592061 0.5389573,0.34232829 C 0.52472729,0.33338302 0.5092741,0.33053321 0.49548052,0.33049388 z"
         style="fill:#ffffff;fill-opacity:1;fill-rule:evenodd;stroke:#f50000;stroke-width:0.01758473;stroke-linejoin:round;stroke-miterlimit:4;stroke-dasharray:none;stroke-opacity:0.96078431;filter:url(#filter4079)" />
    </g>
  </g>
</svg>
