<?xml version="1.0" encoding="UTF-8" standalone="no"?>
<!-- Created with Inkscape (http://www.inkscape.org/) -->
<svg
   xmlns:dc="http://purl.org/dc/elements/1.1/"
   xmlns:cc="http://creativecommons.org/ns#"
   xmlns:rdf="http://www.w3.org/1999/02/22-rdf-syntax-ns#"
   xmlns:svg="http://www.w3.org/2000/svg"
   xmlns="http://www.w3.org/2000/svg"
   xmlns:xlink="http://www.w3.org/1999/xlink"
   xmlns:sodipodi="http://sodipodi.sourceforge.net/DTD/sodipodi-0.dtd"
   xmlns:inkscape="http://www.inkscape.org/namespaces/inkscape"
   width="128"
   height="128"
   id="svg3441"
   sodipodi:version="0.32"
   inkscape:version="0.46"
   version="1.0"
   sodipodi:docname="router_fw.svg"
   inkscape:output_extension="org.inkscape.output.svg.inkscape">
  <defs
     id="defs3443">
    <linearGradient
       inkscape:collect="always"
       xlink:href="#linearGradient14625"
       id="linearGradient7801"
       gradientUnits="userSpaceOnUse"
       gradientTransform="matrix(0.601918,0,0,1.661356,26.29964,-269.4538)"
       x1="110.44791"
       y1="244.048"
       x2="239.46423"
       y2="376.90421" />
    <linearGradient
       inkscape:collect="always"
       xlink:href="#linearGradient14625"
       id="linearGradient7799"
       gradientUnits="userSpaceOnUse"
       gradientTransform="matrix(0.683108,0,0,1.463898,22.7417,-283.6045)"
       x1="198.88322"
       y1="246.21246"
       x2="342.54471"
       y2="403.09412" />
    <linearGradient
       inkscape:collect="always"
       xlink:href="#linearGradient26051"
       id="linearGradient7797"
       gradientUnits="userSpaceOnUse"
       gradientTransform="matrix(0.544121,0,0,1.837828,0.392598,-250.4193)"
       x1="349.43204"
       y1="179.97382"
       x2="390.31766"
       y2="179.97382" />
    <linearGradient
       inkscape:collect="always"
       xlink:href="#linearGradient17250"
       id="linearGradient7795"
       gradientUnits="userSpaceOnUse"
       gradientTransform="matrix(0.796212,0,0,1.70628,1125.509,-315.4759)"
       x1="-1131.0251"
       y1="404.58243"
       x2="-1102.728"
       y2="306.75836" />
    <linearGradient
       inkscape:collect="always"
       xlink:href="#linearGradient26051"
       id="linearGradient7793"
       gradientUnits="userSpaceOnUse"
       gradientTransform="matrix(0.602527,0,0,1.659677,0.392598,-252.4511)"
       x1="533.78339"
       y1="294.8653"
       x2="572.40991"
       y2="294.8653" />
    <linearGradient
       inkscape:collect="always"
       xlink:href="#linearGradient14625"
       id="linearGradient7791"
       gradientUnits="userSpaceOnUse"
       gradientTransform="matrix(0.7951,0,0,1.257703,24.0962,-278.8637)"
       x1="501.40482"
       y1="384.39618"
       x2="317.13544"
       y2="485.78278" />
    <linearGradient
       inkscape:collect="always"
       xlink:href="#linearGradient17250"
       id="linearGradient7789"
       gradientUnits="userSpaceOnUse"
       gradientTransform="matrix(0.926747,0,0,1.465945,1125.509,-315.4759)"
       x1="-916.89685"
       y1="438.47348"
       x2="-857.95917"
       y2="362.15622" />
    <linearGradient
       inkscape:collect="always"
       xlink:href="#linearGradient26051"
       id="linearGradient7787"
       gradientUnits="userSpaceOnUse"
       gradientTransform="matrix(0.606945,0,0,1.647595,0.392598,-250.4193)"
       x1="468.40564"
       y1="232.90141"
       x2="502.45129"
       y2="232.90141" />
    <linearGradient
       inkscape:collect="always"
       xlink:href="#linearGradient17250"
       id="linearGradient7785"
       gradientUnits="userSpaceOnUse"
       gradientTransform="matrix(0.701579,0,0,1.93643,1125.509,-315.4759)"
       x1="-1308.2009"
       y1="330.19891"
       x2="-1335.0436"
       y2="272.82257" />
    <linearGradient
       inkscape:collect="always"
       xlink:href="#linearGradient29186"
       id="linearGradient7783"
       gradientUnits="userSpaceOnUse"
       gradientTransform="matrix(0.805965,0,0,1.240749,18.001,-263.9643)"
       x1="9.6549549"
       y1="256.78357"
       x2="323.10443"
       y2="500.80176" />
    <linearGradient
       inkscape:collect="always"
       xlink:href="#linearGradient17250"
       id="linearGradient7781"
       gradientUnits="userSpaceOnUse"
       gradientTransform="matrix(0.939411,0,0,1.446184,1125.509,-315.4759)"
       x1="-1006.61"
       y1="448.68289"
       x2="-953.87994"
       y2="299.88538" />
    <linearGradient
       inkscape:collect="always"
       xlink:href="#linearGradient14625"
       id="linearGradient7779"
       gradientUnits="userSpaceOnUse"
       gradientTransform="matrix(0.601918,0,0,1.661356,26.29964,-269.4538)"
       x1="110.44791"
       y1="244.048"
       x2="239.46423"
       y2="376.90421" />
    <linearGradient
       inkscape:collect="always"
       xlink:href="#linearGradient14625"
       id="linearGradient7777"
       gradientUnits="userSpaceOnUse"
       gradientTransform="matrix(0.683108,0,0,1.463898,22.7417,-283.6045)"
       x1="198.88322"
       y1="246.21246"
       x2="342.54471"
       y2="403.09412" />
    <linearGradient
       inkscape:collect="always"
       xlink:href="#linearGradient26051"
       id="linearGradient7775"
       gradientUnits="userSpaceOnUse"
       gradientTransform="matrix(0.544121,0,0,1.837828,0.392598,-250.4193)"
       x1="349.43204"
       y1="179.97382"
       x2="390.31766"
       y2="179.97382" />
    <linearGradient
       inkscape:collect="always"
       xlink:href="#linearGradient17250"
       id="linearGradient7773"
       gradientUnits="userSpaceOnUse"
       gradientTransform="matrix(0.796212,0,0,1.70628,1125.509,-315.4759)"
       x1="-1131.0251"
       y1="404.58243"
       x2="-1102.728"
       y2="306.75836" />
    <linearGradient
       inkscape:collect="always"
       xlink:href="#linearGradient26051"
       id="linearGradient7771"
       gradientUnits="userSpaceOnUse"
       gradientTransform="matrix(0.602527,0,0,1.659677,0.392598,-252.4511)"
       x1="533.78339"
       y1="294.8653"
       x2="572.40991"
       y2="294.8653" />
    <linearGradient
       inkscape:collect="always"
       xlink:href="#linearGradient14625"
       id="linearGradient7769"
       gradientUnits="userSpaceOnUse"
       gradientTransform="matrix(0.7951,0,0,1.257703,24.0962,-278.8637)"
       x1="501.40482"
       y1="384.39618"
       x2="317.13544"
       y2="485.78278" />
    <linearGradient
       inkscape:collect="always"
       xlink:href="#linearGradient17250"
       id="linearGradient7767"
       gradientUnits="userSpaceOnUse"
       gradientTransform="matrix(0.926747,0,0,1.465945,1125.509,-315.4759)"
       x1="-916.89685"
       y1="438.47348"
       x2="-857.95917"
       y2="362.15622" />
    <linearGradient
       inkscape:collect="always"
       xlink:href="#linearGradient26051"
       id="linearGradient7765"
       gradientUnits="userSpaceOnUse"
       gradientTransform="matrix(0.606945,0,0,1.647595,0.392598,-250.4193)"
       x1="468.40564"
       y1="232.90141"
       x2="502.45129"
       y2="232.90141" />
    <linearGradient
       inkscape:collect="always"
       xlink:href="#linearGradient17250"
       id="linearGradient7763"
       gradientUnits="userSpaceOnUse"
       gradientTransform="matrix(0.701579,0,0,1.93643,1125.509,-315.4759)"
       x1="-1308.2009"
       y1="330.19891"
       x2="-1335.0436"
       y2="272.82257" />
    <linearGradient
       inkscape:collect="always"
       xlink:href="#linearGradient29186"
       id="linearGradient7761"
       gradientUnits="userSpaceOnUse"
       gradientTransform="matrix(0.805965,0,0,1.240749,18.001,-263.9643)"
       x1="9.6549549"
       y1="256.78357"
       x2="323.10443"
       y2="500.80176" />
    <linearGradient
       inkscape:collect="always"
       xlink:href="#linearGradient17250"
       id="linearGradient7759"
       gradientUnits="userSpaceOnUse"
       gradientTransform="matrix(0.939411,0,0,1.446184,1125.509,-315.4759)"
       x1="-1006.61"
       y1="448.68289"
       x2="-953.87994"
       y2="299.88538" />
    <radialGradient
       inkscape:collect="always"
       xlink:href="#linearGradient19763"
       id="radialGradient7757"
       gradientUnits="userSpaceOnUse"
       gradientTransform="matrix(1,0,0,0.275229,0,-183.6143)"
       cx="-396.06097"
       cy="-253.34123"
       fx="-396.06097"
       fy="-253.34123"
       r="160.48567" />
    <linearGradient
       inkscape:collect="always"
       xlink:href="#linearGradient3611"
       id="linearGradient7755"
       gradientUnits="userSpaceOnUse"
       gradientTransform="translate(2.3137e-3,-8.1311e-3)"
       x1="0.0772705"
       y1="0.078175336"
       x2="0.77503717"
       y2="0.63689995" />
    <linearGradient
       inkscape:collect="always"
       xlink:href="#linearGradient3611"
       id="linearGradient7753"
       gradientUnits="userSpaceOnUse"
       gradientTransform="translate(2.3137e-3,-8.1311e-3)"
       x1="0.0772705"
       y1="0.078175336"
       x2="0.77503717"
       y2="0.63689995" />
    <linearGradient
       inkscape:collect="always"
       xlink:href="#linearGradient3611"
       id="linearGradient7751"
       gradientUnits="userSpaceOnUse"
       gradientTransform="translate(2.3137e-3,-8.1311e-3)"
       x1="0.0772705"
       y1="0.078175336"
       x2="0.77503717"
       y2="0.63689995" />
    <linearGradient
       inkscape:collect="always"
       xlink:href="#linearGradient3302"
       id="linearGradient7749"
       gradientUnits="userSpaceOnUse"
       gradientTransform="matrix(6.9968364e-3,0,0,6.9968361e-3,5.45161e-2,5.89125e-2)"
       x1="156.35693"
       y1="40.172306"
       x2="45.686153"
       y2="20.283077" />
    <linearGradient
       inkscape:collect="always"
       xlink:href="#linearGradient2416"
       id="linearGradient7747"
       gradientUnits="userSpaceOnUse"
       gradientTransform="matrix(0.8955951,0,0,0.8955951,5.30949e-2,4.26501e-2)"
       x1="1.2015384"
       y1="0.59692305"
       x2="0.13538462"
       y2="0.6076923" />
    <linearGradient
       inkscape:collect="always"
       xlink:href="#linearGradient3611"
       id="linearGradient3508"
       gradientUnits="userSpaceOnUse"
       gradientTransform="translate(2.3137e-3,-8.1311e-3)"
       x1="0.0772705"
       y1="0.078175336"
       x2="0.77503717"
       y2="0.63689995" />
    <linearGradient
       inkscape:collect="always"
       xlink:href="#linearGradient3611"
       id="linearGradient3506"
       gradientUnits="userSpaceOnUse"
       gradientTransform="translate(2.3137e-3,-8.1311e-3)"
       x1="0.0772705"
       y1="0.078175336"
       x2="0.77503717"
       y2="0.63689995" />
    <filter
       inkscape:collect="always"
       id="filter3641"
       x="-0.023235899"
       width="1.0464718"
       y="-0.14091448"
       height="1.281829">
      <feGaussianBlur
         inkscape:collect="always"
         stdDeviation="0.0079202288"
         id="feGaussianBlur3643" />
    </filter>
    <filter
       inkscape:collect="always"
       id="filter3623"
       x="-0.083564127"
       width="1.1671283"
       y="-0.11278438"
       height="1.2255688">
      <feGaussianBlur
         inkscape:collect="always"
         stdDeviation="0.029437518"
         id="feGaussianBlur3625" />
    </filter>
    <linearGradient
       inkscape:collect="always"
       id="linearGradient3611">
      <stop
         style="stop-color:#ffffff;stop-opacity:1;"
         offset="0"
         id="stop3613" />
      <stop
         style="stop-color:#ffffff;stop-opacity:0;"
         offset="1"
         id="stop3615" />
    </linearGradient>
    <linearGradient
       inkscape:collect="always"
       xlink:href="#linearGradient3611"
       id="linearGradient3504"
       gradientUnits="userSpaceOnUse"
       gradientTransform="translate(2.3137e-3,-8.1311e-3)"
       x1="0.0772705"
       y1="0.078175336"
       x2="0.77503717"
       y2="0.63689995" />
    <linearGradient
       inkscape:collect="always"
       id="linearGradient3302">
      <stop
         style="stop-color:#000000;stop-opacity:1;"
         offset="0"
         id="stop3304" />
      <stop
         style="stop-color:#000000;stop-opacity:0;"
         offset="1"
         id="stop3306" />
    </linearGradient>
    <linearGradient
       inkscape:collect="always"
       xlink:href="#linearGradient3302"
       id="linearGradient3502"
       gradientUnits="userSpaceOnUse"
       gradientTransform="matrix(6.9968364e-3,0,0,6.9968361e-3,5.45161e-2,5.89125e-2)"
       x1="156.35693"
       y1="40.172306"
       x2="45.686153"
       y2="20.283077" />
    <linearGradient
       inkscape:collect="always"
       id="linearGradient2416">
      <stop
         style="stop-color:#000000;stop-opacity:1;"
         offset="0"
         id="stop2418" />
      <stop
         style="stop-color:#000000;stop-opacity:0;"
         offset="1"
         id="stop2420" />
    </linearGradient>
    <linearGradient
       inkscape:collect="always"
       xlink:href="#linearGradient2416"
       id="linearGradient3500"
       gradientUnits="userSpaceOnUse"
       gradientTransform="matrix(0.8955951,0,0,0.8955951,5.30949e-2,4.26501e-2)"
       x1="1.2015384"
       y1="0.59692305"
       x2="0.13538462"
       y2="0.6076923" />
    <linearGradient
       id="linearGradient2526">
      <stop
         id="stop2528"
         offset="0"
         style="stop-color:#f1c40c;stop-opacity:1;" />
      <stop
         style="stop-color:#f4edd4;stop-opacity:1;"
         offset="0.7228173"
         id="stop3421" />
      <stop
         id="stop2530"
         offset="1"
         style="stop-color:#decd87;stop-opacity:1" />
    </linearGradient>
    <linearGradient
       id="linearGradient14973">
      <stop
         id="stop14975"
         offset="0"
         style="stop-color:#747474;stop-opacity:1;" />
      <stop
         style="stop-color:#b0b0b0;stop-opacity:1;"
         offset="0.62068963"
         id="stop14977" />
      <stop
         id="stop14979"
         offset="1"
         style="stop-color:#3f3f3f;stop-opacity:1;" />
    </linearGradient>
    <linearGradient
       id="linearGradient14881">
      <stop
         style="stop-color:#747474;stop-opacity:1;"
         offset="0"
         id="stop14883" />
      <stop
         id="stop14893"
         offset="0.62068963"
         style="stop-color:#ffffff;stop-opacity:1;" />
      <stop
         style="stop-color:#3f3f3f;stop-opacity:1;"
         offset="1"
         id="stop14885" />
    </linearGradient>
    <linearGradient
       id="linearGradient15015">
      <stop
         style="stop-color:#ffffff;stop-opacity:1;"
         offset="0"
         id="stop15017" />
      <stop
         id="stop15025"
         offset="0.13674198"
         style="stop-color:#d4d6d2;stop-opacity:1;" />
      <stop
         id="stop15023"
         offset="0.79310346"
         style="stop-color:#d4d6d2;stop-opacity:1;" />
      <stop
         style="stop-color:#7e8478;stop-opacity:1;"
         offset="1"
         id="stop15019" />
    </linearGradient>
    <linearGradient
       id="linearGradient3515"
       x1="17.505895"
       y1="24.930641"
       x2="31.107695"
       y2="24.930641"
       gradientUnits="userSpaceOnUse">
      <stop
         style="stop-color:#f20000;stop-opacity:0.96078432;"
         offset="0"
         id="stop3517" />
      <stop
         style="stop-color:#000000;stop-opacity:0;"
         offset="1"
         id="stop3519" />
    </linearGradient>
    <linearGradient
       id="linearGradient6240"
       gradientTransform="scale(1.0928942,0.9150017)"
       x1="23.961606"
       y1="-40.795691"
       x2="130.41633"
       y2="-40.795691"
       gradientUnits="userSpaceOnUse">
      <stop
         style="stop-color:#1f5fe1;stop-opacity:0.96078432;"
         offset="0"
         id="stop6242" />
      <stop
         style="stop-color:#3d9bde;stop-opacity:0;"
         offset="1"
         id="stop6244" />
    </linearGradient>
    <linearGradient
       id="linearGradient6190">
      <stop
         style="stop-color:#a0670c;stop-opacity:1;"
         offset="0"
         id="stop6192" />
      <stop
         style="stop-color:#e6c99d;stop-opacity:1;"
         offset="1"
         id="stop6194" />
    </linearGradient>
    <filter
       inkscape:collect="always"
       id="filter7825"
       x="-0.23720191"
       width="1.4744038"
       y="-0.24468058"
       height="1.4893612">
      <feGaussianBlur
         inkscape:collect="always"
         stdDeviation="35.473771"
         id="feGaussianBlur7827" />
    </filter>
    <linearGradient
       id="linearGradient14625">
      <stop
         style="stop-color:#ffffff;stop-opacity:1.0000000;"
         offset="0.0000000"
         id="stop14626" />
      <stop
         style="stop-color:#ffffff;stop-opacity:0;"
         offset="1"
         id="stop14627" />
    </linearGradient>
    <linearGradient
       id="linearGradient26051">
      <stop
         style="stop-color:#ffffff;stop-opacity:0.44927537;"
         offset="0.0000000"
         id="stop26052" />
      <stop
         style="stop-color:#ffffff;stop-opacity:0;"
         offset="1"
         id="stop26053" />
    </linearGradient>
    <linearGradient
       id="linearGradient29186">
      <stop
         style="stop-color:#ffffff;stop-opacity:1.0000000;"
         offset="0.0000000"
         id="stop29187" />
      <stop
         style="stop-color:#ffffff;stop-opacity:0;"
         offset="1"
         id="stop29188" />
    </linearGradient>
    <linearGradient
       id="linearGradient17250">
      <stop
         style="stop-color:#dc0000;stop-opacity:1.0000000;"
         offset="0.0000000"
         id="stop17251" />
      <stop
         style="stop-color:#ffb200;stop-opacity:1.0000000;"
         offset="1.0000000"
         id="stop17252" />
    </linearGradient>
    <linearGradient
       id="linearGradient19763">
      <stop
         id="stop19764"
         offset="0"
         style="stop-color:#929292;stop-opacity:1;" />
      <stop
         id="stop19765"
         offset="1.0000000"
         style="stop-color:#ffffff;stop-opacity:0.0000000;" />
    </linearGradient>
    <inkscape:perspective
       sodipodi:type="inkscape:persp3d"
       inkscape:vp_x="0 : 526.18109 : 1"
       inkscape:vp_y="0 : 1000 : 0"
       inkscape:vp_z="744.09448 : 526.18109 : 1"
       inkscape:persp3d-origin="372.04724 : 350.78739 : 1"
       id="perspective3449" />
  </defs>
  <sodipodi:namedview
     id="base"
     pagecolor="#ffffff"
     bordercolor="#666666"
     borderopacity="1.0"
     gridtolerance="10000"
     guidetolerance="10"
     objecttolerance="10"
     inkscape:pageopacity="0.0"
     inkscape:pageshadow="2"
     inkscape:zoom="3.859375"
     inkscape:cx="64"
     inkscape:cy="64"
     inkscape:document-units="px"
     inkscape:current-layer="layer1"
     showgrid="false"
     inkscape:window-width="1019"
     inkscape:window-height="722"
     inkscape:window-x="237"
     inkscape:window-y="117" />
  <metadata
     id="metadata3446">
    <rdf:RDF>
      <cc:Work
         rdf:about="">
        <dc:format>image/svg+xml</dc:format>
        <dc:type
           rdf:resource="http://purl.org/dc/dcmitype/StillImage" />
      </cc:Work>
    </rdf:RDF>
  </metadata>
  <g
     inkscape:label="Layer 1"
     inkscape:groupmode="layer"
     id="layer1">
    <g
       id="g7638"
       transform="matrix(128,0,0,128,480.38014,790.71696)">
      <g
         transform="translate(0.3604907,-6.1774763)"
         id="g6715">
        <g
           id="g6717"
           transform="translate(-4.1138279,0)">
          <path
             sodipodi:nodetypes="cccsccccscc"
             id="path6719"
             d="M 0.0530949,0.25484597 L 0.0530949,0.76907629 L 0.0546255,0.76907629 C 0.0604498,0.86432612 0.2586831,0.94108755 0.5022044,0.94108755 C 0.745719,0.94108755 0.94394874,0.86432251 0.94978324,0.76907629 L 0.95153244,0.76907629 L 0.95153244,0.25484597 L 0.94978324,0.25484597 C 0.94216124,0.3209663 0.745941,0.40553924 0.5035822,0.40553924 C 0.2612276,0.40553926 0.0624727,0.3209647 0.0548441,0.25484597 L 0.0530949,0.25484597 z"
             style="fill:#3e9ade;fill-opacity:0.7177419;fill-rule:evenodd;stroke-width:2;stroke-miterlimit:4;stroke-dasharray:none" />
          <path
             style="fill:url(#linearGradient7747);fill-opacity:1;fill-rule:evenodd;stroke:none;stroke-width:2;stroke-miterlimit:4;stroke-dasharray:none"
             d="M 0.0530949,0.25484601 L 0.0530949,0.76907639 L 0.0546255,0.76907639 C 0.0604498,0.86432625 0.2586831,0.94108763 0.5022043,0.94108763 C 0.745719,0.94108763 0.94394874,0.86432257 0.94978325,0.76907639 L 0.95153244,0.76907639 L 0.95153244,0.25484601 L 0.94978325,0.25484601 C 0.94216125,0.32096634 0.7459411,0.4055393 0.5035823,0.4055393 C 0.2612276,0.40553931 0.0624727,0.32096474 0.0548441,0.25484601 L 0.0530949,0.25484601 z"
             id="path6721"
             sodipodi:nodetypes="cccsccccscc" />
          <path
             sodipodi:nodetypes="cssccc"
             id="path6723"
             d="M 0.5023137,0.05891241 C 0.2551294,0.05891241 0.0545161,0.13536863 0.0545161,0.22967894 C 0.0545161,0.32398925 0.2551294,0.40066411 0.5023137,0.40066411 C 0.7494979,0.40066411 0.95011124,0.32398925 0.95011124,0.22967894 L 0.94989264,0.22355671 C 0.94101924,0.1315161 0.7437122,0.05891241 0.5023137,0.05891241 z"
             style="fill:#3e9ade;fill-opacity:0.7177419;fill-rule:evenodd;stroke-width:2;stroke-miterlimit:4;stroke-dasharray:none" />
          <path
             sodipodi:nodetypes="cssccc"
             style="opacity:0.93999999;fill:url(#linearGradient7749);fill-opacity:1;fill-rule:evenodd;stroke-width:2;stroke-miterlimit:4;stroke-dasharray:none"
             d="M 0.5023137,0.05891241 C 0.2551294,0.05891241 0.0545162,0.13536863 0.0545162,0.22967894 C 0.0545162,0.32398924 0.2551294,0.40066411 0.5023137,0.40066411 C 0.7494979,0.40066411 0.95011123,0.32398924 0.95011123,0.22967894 L 0.94989253,0.22355671 C 0.94101913,0.1315161 0.7437122,0.05891241 0.5023137,0.05891241 z"
             id="path6725" />
          <path
             transform="translate(0.6607752,0.4398017)"
             sodipodi:end="3.2477122e-05"
             sodipodi:start="0"
             sodipodi:open="true"
             d="M -0.26769233,-0.047692306 A 0.25846153,0.19538462 0 0 1 -0.26769233,-0.047685961"
             sodipodi:ry="0.19538462"
             sodipodi:rx="0.25846153"
             sodipodi:cy="-0.047692306"
             sodipodi:cx="-0.52615386"
             id="path6727"
             style="opacity:0.93999999;fill:#ffcc66;fill-opacity:0.96078431;fill-rule:evenodd;stroke:none;stroke-width:2;stroke-miterlimit:4;stroke-dasharray:none"
             sodipodi:type="arc" />
          <path
             transform="translate(0.3161598,0.2628786)"
             sodipodi:type="arc"
             style="opacity:0.93999999;fill:#ffcc66;fill-opacity:0.96078431;fill-rule:evenodd;stroke:none;stroke-width:2;stroke-miterlimit:4;stroke-dasharray:none"
             id="path6729"
             sodipodi:cx="-0.52615386"
             sodipodi:cy="-0.047692306"
             sodipodi:rx="0.25846153"
             sodipodi:ry="0.19538462"
             d="M -0.26769233,-0.047692306 A 0.25846153,0.19538462 0 0 1 -0.26769233,-0.047685961"
             sodipodi:open="true"
             sodipodi:start="0"
             sodipodi:end="3.2477122e-05" />
          <path
             sodipodi:nodetypes="cccsccc"
             id="path6731"
             d="M 0.5021917,0.0700442 C 0.2688986,0.0700442 0.0795842,0.15476673 0.0795842,0.25925318 C 0.1304351,0.35196034 0.1485626,0.36511131 0.1442815,0.46726099 C 0.3052843,0.81144138 0.3078918,0.66181278 0.5054552,0.66181278 C 0.7030187,0.66181278 0.7078019,0.81796857 0.8601018,0.46726099 C 0.8639431,0.32168564 0.9080815,0.3749521 0.9250432,0.25925318 C 0.9250432,0.15476672 0.7354847,0.0700442 0.5021917,0.0700442 z"
             style="opacity:0.7;fill:url(#linearGradient7751);fill-opacity:1;fill-rule:evenodd;stroke:none;stroke-width:2;stroke-miterlimit:4;stroke-dasharray:none;filter:url(#filter3623)" />
          <path
             transform="matrix(0.856383,0,0,1.5322581,-0.1889497,-0.5468461)"
             d="M 1.2162237,0.86293006 A 0.40903407,0.067447111 0 1 1 0.39815551,0.86293006 A 0.40903407,0.067447111 0 1 1 1.2162237,0.86293006 z"
             sodipodi:ry="0.067447111"
             sodipodi:rx="0.40903407"
             sodipodi:cy="0.86293006"
             sodipodi:cx="0.80718958"
             id="path6733"
             style="opacity:0.2;fill:#ffff99;fill-opacity:0.96078431;fill-rule:evenodd;stroke:none;stroke-width:2;stroke-miterlimit:4;stroke-dasharray:none;filter:url(#filter3641)"
             sodipodi:type="arc" />
          <path
             style="opacity:0.7;fill:url(#linearGradient7753);fill-opacity:1;fill-rule:evenodd;stroke:none;stroke-width:2;stroke-miterlimit:4;stroke-dasharray:none;filter:url(#filter3623)"
             d="M 0.5021917,0.0700442 C 0.2688986,0.0700442 0.0795842,0.15476673 0.0795842,0.25925318 C 0.1304351,0.35196034 0.1485626,0.36511131 0.1442815,0.46726099 C 0.3052843,0.81144138 0.3078918,0.66181278 0.5054552,0.66181278 C 0.7030187,0.66181278 0.7078019,0.81796857 0.8601018,0.46726099 C 0.8639431,0.32168564 0.9080815,0.3749521 0.9250432,0.25925318 C 0.9250432,0.15476672 0.7354847,0.0700442 0.5021917,0.0700442 z"
             id="path6735"
             sodipodi:nodetypes="cccsccc"
             transform="matrix(0.7197699,0,0,0.6070447,0.1407634,0.1506012)" />
          <path
             transform="matrix(0.2939657,0,0,0.3123282,0.3546507,0.2635521)"
             sodipodi:nodetypes="cccsccc"
             id="path6737"
             d="M 0.5021917,0.0700442 C 0.2688986,0.0700442 0.0795842,0.15476673 0.0795842,0.25925318 C 0.1304351,0.35196034 0.1485626,0.36511131 0.1442815,0.46726099 C 0.3052843,0.81144138 0.3078918,0.66181278 0.5054552,0.66181278 C 0.7030187,0.66181278 0.7078019,0.81796857 0.8601018,0.46726099 C 0.8639431,0.32168564 0.9080815,0.3749521 0.9250432,0.25925318 C 0.9250432,0.15476672 0.7354847,0.0700442 0.5021917,0.0700442 z"
             style="opacity:0.7;fill:url(#linearGradient7755);fill-opacity:1;fill-rule:evenodd;stroke:none;stroke-width:2;stroke-miterlimit:4;stroke-dasharray:none;filter:url(#filter3623)" />
        </g>
        <g
           id="g6739"
           transform="translate(-4.06656,-1.4923413)">
          <path
             transform="matrix(2.4091548e-2,0,0,-2.4095808e-2,7.900079e-3,2.4353322)"
             d="M 10.03125,28.375 C 9.7830861,28.427823 9.5871465,28.618184 9.5271785,28.864719 C 9.4672105,29.111254 9.5538244,29.370344 9.75,29.53125 L 9.90625,29.65625 L 2.4375,30.9375 C 2.1736562,30.979903 1.9613919,31.177171 1.8998044,31.437207 C 1.838217,31.697243 1.9394532,31.968761 2.15625,32.125 L 4.375,33.78125 C 4.5178497,33.888934 4.6982815,33.934042 4.875,33.90625 L 13.15625,32.5 L 14,33.15625 C 14.145748,33.273584 14.334436,33.323567 14.519157,33.293773 C 14.703878,33.26398 14.867283,33.157207 14.96875,33 L 16.46875,30.71875 C 16.598993,30.536655 16.628084,30.300963 16.546027,30.092664 C 16.46397,29.884364 16.281945,29.73184 16.0625,29.6875 L 10.3125,28.375 C 10.219838,28.3548 10.123912,28.3548 10.03125,28.375 z"
             id="path6741"
             style="font-style:normal;font-variant:normal;font-weight:normal;font-stretch:normal;letter-spacing:normal;word-spacing:normal;text-anchor:start;fill:#ffcc00;fill-opacity:1;fill-rule:nonzero;stroke:#ffffff;stroke-width:0;stroke-linecap:butt;stroke-linejoin:miter;stroke-miterlimit:10.43299961;stroke-dashoffset:0;stroke-opacity:1"
             inkscape:original="M 10.15625 29.03125 L 11.4375 30.0625 L 2.5625 31.59375 L 4.78125 33.25 L 13.34375 31.8125 L 14.40625 32.625 L 15.90625 30.34375 L 10.15625 29.03125 z "
             inkscape:radius="0.66016752"
             sodipodi:type="inkscape:offset" />
          <path
             transform="matrix(2.4091548e-2,0,0,-2.4095808e-2,7.900079e-3,2.4353322)"
             d="M 32.1875,25.84375 C 32.176761,25.85384 32.16634,25.864261 32.15625,25.875 L 23.90625,27.40625 L 22.9375,26.5625 C 22.767175,26.41019 22.533903,26.349264 22.310851,26.398831 C 22.087799,26.448398 21.902287,26.602387 21.8125,26.8125 L 20.78125,29.15625 C 20.699222,29.350232 20.707647,29.570636 20.804243,29.75779 C 20.900839,29.944944 21.075614,30.07949 21.28125,30.125 L 26.46875,31.1875 C 26.74512,31.244649 27.029075,31.132512 27.191824,30.90195 C 27.354574,30.671387 27.365148,30.366276 27.21875,30.125 L 34.46875,28.90625 C 34.74081,28.854889 34.958115,28.649916 35.025265,28.381316 C 35.092415,28.112717 34.997133,27.829597 34.78125,27.65625 L 32.71875,26 C 32.570153,25.878085 32.37844,25.821698 32.1875,25.84375 L 32.1875,25.84375 z"
             id="path6743"
             style="font-style:normal;font-variant:normal;font-weight:normal;font-stretch:normal;letter-spacing:normal;word-spacing:normal;text-anchor:start;fill:#ffcc00;fill-opacity:1;fill-rule:nonzero;stroke:#ffffff;stroke-width:0;stroke-linecap:butt;stroke-linejoin:miter;stroke-miterlimit:10.43299961;stroke-dashoffset:0;stroke-opacity:1"
             inkscape:original="M 32.28125 26.5625 L 23.6875 28.15625 L 22.46875 27.09375 L 21.4375 29.4375 L 26.625 30.5 L 25.71875 29.6875 L 34.34375 28.21875 L 32.28125 26.5625 z "
             inkscape:radius="0.70919627"
             sodipodi:type="inkscape:offset" />
          <path
             transform="matrix(2.4091548e-2,0,0,-2.4095808e-2,7.900079e-3,2.4353322)"
             d="M 11.46875,23.40625 C 11.251342,23.477892 11.101652,23.677478 11.09375,23.90625 L 10.90625,26.4375 C 10.897732,26.606408 10.967923,26.769738 11.096331,26.879801 C 11.224739,26.989865 11.396882,27.034251 11.5625,27 L 12.875,26.71875 L 15.71875,29.125 C 15.839467,29.228305 15.999178,29.273936 16.15625,29.25 L 18.84375,28.8125 C 19.04833,28.777578 19.215453,28.62975 19.275089,28.430964 C 19.334725,28.232178 19.276573,28.016768 19.125,27.875 L 16.625,25.6875 L 17.3125,25.5 C 17.556271,25.42812 17.718275,25.197629 17.703351,24.943921 C 17.688427,24.690212 17.500517,24.480305 17.25,24.4375 L 11.71875,23.40625 C 11.636537,23.386926 11.550963,23.386926 11.46875,23.40625 L 11.46875,23.40625 z"
             id="path6745"
             style="font-style:normal;font-variant:normal;font-weight:normal;font-stretch:normal;letter-spacing:normal;word-spacing:normal;text-anchor:start;fill:#ffcc00;fill-opacity:1;fill-rule:nonzero;stroke:#ffffff;stroke-width:0;stroke-linecap:butt;stroke-linejoin:miter;stroke-miterlimit:10.43299961;stroke-dashoffset:0;stroke-opacity:1"
             inkscape:original="M 11.625 23.9375 L 11.4375 26.46875 L 13 26.125 L 16.0625 28.71875 L 18.75 28.28125 L 15.5 25.4375 L 17.15625 24.96875 L 11.625 23.9375 z "
             inkscape:radius="0.54625028"
             sodipodi:type="inkscape:offset" />
          <path
             transform="matrix(2.4091548e-2,0,0,-2.4095808e-2,7.900079e-3,2.4353322)"
             d="M 20.78125,30.5 L 18.09375,30.875 C 17.880534,30.896548 17.701319,31.04447 17.63974,31.249734 C 17.57816,31.454999 17.646355,31.677143 17.8125,31.8125 L 19.78125,33.375 L 19.1875,33.46875 C 18.945987,33.517193 18.769759,33.725753 18.762298,33.971964 C 18.754837,34.218174 18.918114,34.437023 19.15625,34.5 L 24.9375,36.0625 C 25.093138,36.100894 25.257791,36.066727 25.385302,35.969576 C 25.512812,35.872424 25.589457,35.722746 25.59375,35.5625 L 25.65625,33.09375 C 25.659353,32.934797 25.590882,32.782859 25.469747,32.679894 C 25.348611,32.576929 25.187627,32.53383 25.03125,32.5625 L 23.8125,32.8125 L 21.1875,30.625 C 21.075478,30.528436 20.92818,30.483113 20.78125,30.5 z"
             id="path6747"
             style="font-style:normal;font-variant:normal;font-weight:normal;font-stretch:normal;letter-spacing:normal;word-spacing:normal;text-anchor:start;fill:#ffcc00;fill-opacity:1;fill-rule:nonzero;stroke:#ffffff;stroke-width:0;stroke-linecap:butt;stroke-linejoin:miter;stroke-miterlimit:10.43299961;stroke-dashoffset:0;stroke-opacity:1"
             inkscape:original="M 20.84375 31.03125 L 18.15625 31.40625 L 21.0625 33.71875 L 19.28125 34 L 25.0625 35.5625 L 25.125 33.09375 L 23.6875 33.375 L 20.84375 31.03125 z "
             inkscape:radius="0.52954406"
             sodipodi:type="inkscape:offset" />
        </g>
      </g>
      <g
         transform="matrix(1.5099606e-3,0,0,1.4347679e-3,-4.1342717,-5.9076101)"
         id="g18542">
        <path
           style="fill:#000000;fill-opacity:0.40540538;fill-rule:evenodd;stroke:none;stroke-width:2.1563108;stroke-linecap:butt;stroke-linejoin:miter;stroke-miterlimit:4;stroke-opacity:0.50381679"
           id="path17183"
           d="M 636.31028,104.22837 C 621.31758,123.91357 614.95908,149.05264 616.87038,173.56525 C 618.29868,185.55216 611.92568,196.71173 607.38878,207.41971 C 599.04608,223.38158 591.49918,240.81358 593.78048,259.25597 C 593.12238,269.88267 588.40128,259.16837 588.89848,253.82347 C 586.63748,238.78818 585.67048,223.19638 588.75458,208.3021 C 587.20008,193.80847 583.52868,178.09735 571.56038,168.57212 C 575.11428,185.77615 579.73238,205.16632 571.15408,221.60338 C 568.07638,227.11008 561.19178,228.61578 559.75288,235.22828 C 545.31016,260.52877 544.22186,292.07167 555.18706,318.85657 C 557.46896,324.95717 560.44548,330.78087 563.02908,336.75957 C 554.98176,332.16467 546.15066,329.04637 538.37286,324.00957 C 549.14656,355.55597 569.63248,386.59047 601.97178,398.86737 C 614.68928,404.28157 628.55788,405.28647 641.99418,407.42377 C 671.44468,416.61767 707.99148,410.57667 727.42158,384.94877 C 738.83768,370.12187 742.00898,350.11247 738.12278,332.04087 C 732.98018,342.44157 724.06908,350.87087 712.56028,353.54087 C 715.20828,340.18777 711.17678,326.82547 704.27818,315.40407 C 696.83098,303.21717 695.07998,287.81167 701.02318,274.64467 C 710.04058,254.87987 716.85638,230.96208 706.35458,210.39152 C 703.10468,200.89538 700.81678,206.72467 699.17028,213.45074 C 692.30398,234.57208 678.43888,252.53957 662.74778,267.94707 C 663.83438,246.39927 671.35238,226.01168 674.54738,204.82975 C 676.37168,194.03901 674.27598,183.21076 672.01678,172.76102 C 670.47898,161.01888 658.24128,154.99549 653.07798,144.94029 C 643.87658,131.56679 640.81628,114.9449 640.27898,98.97837 C 638.95608,100.72837 637.63318,102.47837 636.31028,104.22837 z" />
        <g
           id="g17093"
           transform="translate(21.43938,-10.1784)">
          <path
             transform="translate(1097.074,683.5118)"
             d="M -235.5753,-253.34123 A 160.48567,44.170368 0 1 1 -556.54665,-253.34123 A 160.48567,44.170368 0 1 1 -235.5753,-253.34123 z"
             sodipodi:ry="44.170368"
             sodipodi:rx="160.48567"
             sodipodi:cy="-253.34123"
             sodipodi:cx="-396.06097"
             id="path15143"
             style="fill:url(#radialGradient7757);fill-opacity:1;fill-rule:evenodd;stroke:none;stroke-width:5.75;stroke-linecap:round;stroke-miterlimit:4;stroke-dasharray:none;stroke-dashoffset:0;stroke-opacity:0.57657626"
             sodipodi:type="arc" />
          <g
             id="g17061">
            <g
               id="g14694"
               transform="translate(423.2068,63.92751)">
              <path
                 d="M 135.30628,265.02207 C 154.65407,322.19907 185.264,352.52027 240.13085,355.98557 C 300.4844,375.33327 356.50634,335.77147 340.62383,273.68527 C 333.40451,286.96877 328.78415,294.18817 316.3669,297.94217 C 321.27605,263.57817 289.7998,257.80277 305.10476,220.83977 C 315.78937,198.02677 322.14237,170.01577 303.37213,147.20272 C 295.57526,173.19227 286.04576,190.51867 266.98674,209.57767 C 269.00815,177.81267 285.75697,152.11185 275.64992,122.07947 C 277.09379,101.86536 243.8849,102.44291 243.59613,40.645498 C 222.51571,67.212618 213.56375,87.715492 216.74025,128.1437 C 208.94337,160.77503 189.88438,172.61477 193.34965,207.84507 C 190.46192,188.20847 188.44051,171.17087 192.48332,156.73222 C 190.17314,138.82831 187.86295,123.52333 169.95904,110.81732 C 175.44573,133.05284 181.79873,166.5505 163.02849,174.92487 C 157.83058,185.60947 131.84101,222.28367 160.42953,279.74947 C 152.05512,274.84037 143.68069,273.39647 135.30628,265.02207 z"
                 id="path15991"
                 style="fill:url(#linearGradient7759);fill-opacity:1;fill-rule:evenodd;stroke:#ffff00;stroke-width:2.1563108;stroke-linecap:butt;stroke-linejoin:miter;stroke-miterlimit:4;stroke-opacity:0.50381679" />
              <path
                 d="M 237.3145,53.086958 C 222.32178,72.772158 215.96331,97.911232 217.87462,122.42384 C 219.30286,134.41075 212.92991,145.57032 208.393,156.2783 C 200.05028,172.24017 192.50343,189.67217 194.78468,208.11457 C 194.12665,218.74127 189.40551,208.02697 189.90267,202.68207 C 187.64166,187.64677 186.67469,172.05497 189.75881,157.16069 C 188.20432,142.66706 184.5329,126.95594 172.5645,117.43071 C 176.11852,134.63474 180.73662,154.02491 172.15825,170.46197 C 169.08046,175.96867 162.1959,177.47437 160.75698,184.08687 C 146.31426,209.38737 145.22604,240.93027 156.19116,267.71517 C 158.4731,273.81577 161.4496,279.63947 164.03325,285.61817 C 155.98595,281.02327 147.15479,277.90497 139.377,272.86817 C 150.15069,304.41457 170.63661,335.44907 202.976,347.72597 C 215.69352,353.14017 229.56207,354.14507 242.99843,356.28237 C 272.44888,365.47627 308.99567,359.43527 328.42578,333.80737 C 339.84186,318.98047 343.01325,298.97107 339.127,280.89947 C 333.98445,291.30017 325.07332,299.72947 313.5645,302.39947 C 316.2125,289.04637 312.18098,275.68407 305.28238,264.26267 C 297.83516,252.07577 296.08422,236.67027 302.02743,223.50327 C 311.04485,203.73847 317.86058,179.82067 307.35882,159.25011 C 304.10886,149.75397 301.82102,155.58326 300.1745,162.30933 C 293.30818,183.43067 279.44315,201.39817 263.752,216.80567 C 264.83857,195.25787 272.35659,174.87027 275.55156,153.68834 C 277.3759,142.8976 275.28016,132.06935 273.02104,121.61961 C 271.48321,109.87747 259.24548,103.85408 254.08218,93.798882 C 244.88084,80.425382 241.82048,63.803488 241.28325,47.836958 C 239.96033,49.586958 238.63742,51.336958 237.3145,53.086958 z"
                 id="path29198"
                 style="fill:url(#linearGradient7761);fill-opacity:1;fill-rule:evenodd;stroke:none;stroke-width:2.1563108;stroke-linecap:butt;stroke-linejoin:miter;stroke-miterlimit:4;stroke-opacity:0.50381679" />
              <path
                 d="M 234.06662,347.32237 C 188.15173,298.80847 180.35486,265.02207 210.67602,232.96827 C 244.75122,172.32597 236.3768,134.20793 211.54234,97.822552 C 234.93294,178.39017 183.82013,230.36927 167.36008,253.75987 C 157.54181,223.43877 165.91621,210.44397 179.48855,173.19227 C 152.92143,202.06957 136.75014,237.01107 146.56843,270.21997 C 164.47235,320.17767 206.63319,331.15107 234.06662,347.32237 z"
                 id="path15990"
                 style="fill:url(#linearGradient7763);fill-opacity:1;fill-rule:evenodd;stroke:#ffff00;stroke-width:2.1563108;stroke-linecap:butt;stroke-linejoin:miter;stroke-miterlimit:4;stroke-opacity:0.50381679" />
              <path
                 d="M 289.78874,164.02436 C 283.63393,146.12338 288.65653,142.28977 294.04796,134.46933 C 299.60959,132.3032 297.90493,124.75067 300.93982,107.93088 C 305.53497,126.70437 317.87117,135.24037 289.78874,164.02436 z"
                 id="path15994"
                 style="fill:#ffd700;fill-opacity:1;fill-rule:evenodd;stroke:#ffff00;stroke-width:2.1563108;stroke-linecap:butt;stroke-linejoin:miter;stroke-miterlimit:4;stroke-opacity:0.50381679" />
              <path
                 d="M 296.70508,104.9869 C 294.83368,112.96716 295.67968,121.76195 292.20508,129.20565 C 284.064,135.42502 280.51411,146.98168 284.08392,156.78915 C 285.19226,165.00908 287.76326,166.4272 292.32099,158.92107 C 302.05287,148.90681 311.15848,134.55846 305.61717,120.20932 C 303.11691,112.8905 300.92756,105.46029 298.14258,98.236902 C 297.66341,100.4869 297.18425,102.7369 296.70508,104.9869 z"
                 id="path28563"
                 style="fill:url(#linearGradient7765);fill-opacity:1;fill-rule:evenodd;stroke:none;stroke-width:2.1563108;stroke-linecap:butt;stroke-linejoin:miter;stroke-miterlimit:4;stroke-opacity:0.50381679" />
              <path
                 d="M 329.36169,273.68527 C 345.2442,258.38027 342.0677,251.73847 340.62383,240.76517 C 336.00347,235.56727 341.77892,228.63667 347.55438,209.57767 C 332.82696,226.61527 315.50058,228.92547 329.36169,273.68527 z"
                 id="path15993"
                 style="fill:#ffd700;fill-opacity:1;fill-rule:evenodd;stroke:#ffff00;stroke-width:2.1563108;stroke-linecap:butt;stroke-linejoin:miter;stroke-miterlimit:4;stroke-opacity:0.50381679" />
              <path
                 d="M 254.85827,347.32237 C 272.76219,337.21527 277.67132,305.45027 279.98152,270.21997 C 284.31311,236.14477 292.9763,202.06957 350.15334,196.58287 C 326.76272,215.35317 307.70372,238.45497 316.3669,281.48217 C 314.05672,344.14587 267.56428,341.83567 254.85827,347.32237 z"
                 id="path15992"
                 style="fill:url(#linearGradient7767);fill-opacity:1;fill-rule:evenodd;stroke:#ffff00;stroke-width:2.1563108;stroke-linecap:butt;stroke-linejoin:miter;stroke-miterlimit:4;stroke-opacity:0.50381679" />
              <path
                 d="M 343.565,191.60497 C 319.18377,195.06187 294.05263,209.70957 286.89673,234.58817 C 275.41308,265.68517 281.75874,301.07847 266.09625,330.94877 C 260.14813,333.53377 261.60226,344.62307 268.94806,342.45337 C 290.46452,338.55217 310.88571,323.60437 316.33693,301.66727 C 321.59453,286.43357 318.61329,270.31747 318.05398,254.66997 C 318.7694,231.97657 331.90911,211.51217 349.15875,197.51127 C 352.17831,193.16227 347.14219,191.69937 343.565,191.60497 z"
                 id="path26056"
                 style="fill:url(#linearGradient7769);fill-opacity:1;fill-rule:evenodd;stroke:none;stroke-width:2.1563108;stroke-linecap:butt;stroke-linejoin:miter;stroke-miterlimit:4;stroke-opacity:0.50381679" />
              <path
                 d="M 343.86133,203.48637 C 334.03636,213.88647 319.78283,223.61947 320.12671,239.60987 C 319.40052,251.06637 323.48022,261.98947 326.01758,272.98637 C 334.54625,264.84787 344.24066,254.24637 341.11656,241.41177 C 341.09434,235.75637 336.83198,230.80927 340.17818,225.29897 C 343.39208,216.57337 346.75407,207.89087 348.98633,198.83017 C 347.278,200.38227 345.56966,201.93437 343.86133,203.48637 z"
                 id="path28562"
                 style="fill:url(#linearGradient7771);fill-opacity:1;fill-rule:evenodd;stroke:none;stroke-width:2.1563108;stroke-linecap:butt;stroke-linejoin:miter;stroke-miterlimit:4;stroke-opacity:0.50381679" />
              <path
                 d="M 223.6708,323.93177 C 221.36061,296.20957 218.18411,276.28417 253.12564,251.16097 C 312.32408,209.86647 283.15802,185.89827 246.19509,142.87112 C 257.16846,185.60947 239.55331,219.68467 224.53711,242.49777 C 214.71884,256.64767 180.64364,285.52497 223.6708,323.93177 z"
                 id="path15989"
                 style="fill:url(#linearGradient7773);fill-opacity:1;fill-rule:evenodd;stroke:#ffff00;stroke-width:2.1563108;stroke-linecap:butt;stroke-linejoin:miter;stroke-miterlimit:4;stroke-opacity:0.50381679" />
              <path
                 d="M 201.08933,120.58171 C 217.07777,102.17126 212.9715,94.593212 210.36011,81.917472 C 204.80521,76.074008 210.49139,67.795088 215.04178,45.440968 C 200.48259,65.814958 181.69342,69.203818 201.08933,120.58171 z"
                 id="path15995"
                 style="fill:#ffd700;fill-opacity:1;fill-rule:evenodd;stroke:#ffff00;stroke-width:2.1563108;stroke-linecap:butt;stroke-linejoin:miter;stroke-miterlimit:4;stroke-opacity:0.50381679" />
              <path
                 d="M 211.20508,41.518148 C 201.89539,53.692378 187.77762,64.926138 188.51758,81.799402 C 188.4173,95.828762 193.94668,108.91783 198.08008,122.08065 C 206.52034,112.44595 215.5002,100.21081 211.74366,86.634512 C 211.76941,81.262952 208.00666,77.092638 207.89822,72.019308 C 209.9551,60.043968 214.21087,48.476238 215.89258,36.393148 C 214.33008,38.101478 212.76758,39.809818 211.20508,41.518148 z"
                 id="path28564"
                 style="fill:url(#linearGradient7775);fill-opacity:1;fill-rule:evenodd;stroke:none;stroke-width:2.1563108;stroke-linecap:butt;stroke-linejoin:miter;stroke-miterlimit:4;stroke-opacity:0.50381679" />
              <path
                 d="M 245.30425,135.70802 C 251.70933,164.84338 245.11261,195.53647 230.36863,221.13277 C 221.215,238.73007 203.16773,252.20707 201.44801,273.14377 C 198.68951,291.38827 211.83533,306.59517 224.01699,318.38477 C 228.97883,324.62377 224.72588,309.87427 225.40121,306.42157 C 223.4215,288.47287 226.49994,268.33377 240.98371,256.02177 C 257.10885,240.33437 280.10729,229.45987 287.83121,206.91247 C 293.05553,186.99957 279.13453,169.15063 266.99252,155.01068 C 259.66984,146.12535 251.94951,137.60454 244.273,129.02052 C 244.61675,131.24969 244.9605,133.47885 245.30425,135.70802 z"
                 id="path26055"
                 style="fill:url(#linearGradient7777);fill-opacity:1;fill-rule:evenodd;stroke:none;stroke-width:2.1563108;stroke-linecap:butt;stroke-linejoin:miter;stroke-miterlimit:4;stroke-opacity:0.50381679" />
              <path
                 d="M 216.20594,109.85866 C 216.83981,123.63641 220.757,137.27983 218.96326,151.18697 C 217.38096,183.65387 203.11542,214.18567 183.42132,239.60107 C 179.76789,244.79227 175.87684,249.81037 172.11219,254.92117 C 167.07802,238.14837 169.35064,220.06307 176.13083,204.14647 C 179.70132,195.64177 182.20731,186.81457 183.51844,177.67116 C 164.69749,194.84057 151.41488,218.24487 146.73719,243.29617 C 142.94555,266.46557 151.09633,290.28637 166.46767,307.69917 C 185.79494,330.50057 213.58431,343.31267 240.51844,354.76487 C 225.25628,333.29687 204.01013,313.92577 199.49811,286.80267 C 196.40316,271.05327 202.60484,255.24597 212.94787,243.47077 C 224.78726,227.20477 232.16112,207.85547 236.54154,188.32457 C 242.23046,162.8883 237.6701,135.38488 223.76844,113.32741 C 220.33807,110.8197 214.20849,97.642918 216.20594,109.85866 z"
                 id="path26054"
                 style="fill:url(#linearGradient7779);fill-opacity:1;fill-rule:evenodd;stroke:none;stroke-width:2.1563108;stroke-linecap:butt;stroke-linejoin:miter;stroke-miterlimit:4;stroke-opacity:0.50381679" />
            </g>
            <g
               id="g15091"
               transform="matrix(-0.816808,0,0,0.816808,935.759,121.8191)">
              <path
                 d="M 135.30628,265.02207 C 154.65407,322.19907 185.264,352.52027 240.13085,355.98557 C 300.4844,375.33327 356.50634,335.77147 340.62383,273.68527 C 333.40451,286.96877 328.78415,294.18817 316.3669,297.94217 C 321.27605,263.57817 289.7998,257.80277 305.10476,220.83977 C 315.78937,198.02677 322.14237,170.01577 303.37213,147.20272 C 295.57526,173.19227 286.04576,190.51867 266.98674,209.57767 C 269.00815,177.81267 285.75697,152.11185 275.64992,122.07947 C 277.09379,101.86536 243.8849,102.44291 243.59613,40.645498 C 222.51571,67.212618 213.56375,87.715492 216.74025,128.1437 C 208.94337,160.77503 189.88438,172.61477 193.34965,207.84507 C 190.46192,188.20847 188.44051,171.17087 192.48332,156.73222 C 190.17314,138.82831 187.86295,123.52333 169.95904,110.81732 C 175.44573,133.05284 181.79873,166.5505 163.02849,174.92487 C 157.83058,185.60947 131.84101,222.28367 160.42953,279.74947 C 152.05512,274.84037 143.68069,273.39647 135.30628,265.02207 z"
                 id="path15093"
                 style="fill:url(#linearGradient7781);fill-opacity:1;fill-rule:evenodd;stroke:#ffff00;stroke-width:2.1563108;stroke-linecap:butt;stroke-linejoin:miter;stroke-miterlimit:4;stroke-opacity:0.50381679" />
              <path
                 d="M 237.3145,53.086958 C 222.32178,72.772158 215.96331,97.911232 217.87462,122.42384 C 219.30286,134.41075 212.92991,145.57032 208.393,156.2783 C 200.05028,172.24017 192.50343,189.67217 194.78468,208.11457 C 194.12665,218.74127 189.40551,208.02697 189.90267,202.68207 C 187.64166,187.64677 186.67469,172.05497 189.75881,157.16069 C 188.20432,142.66706 184.5329,126.95594 172.5645,117.43071 C 176.11852,134.63474 180.73662,154.02491 172.15825,170.46197 C 169.08046,175.96867 162.1959,177.47437 160.75698,184.08687 C 146.31426,209.38737 145.22604,240.93027 156.19116,267.71517 C 158.4731,273.81577 161.4496,279.63947 164.03325,285.61817 C 155.98595,281.02327 147.15479,277.90497 139.377,272.86817 C 150.15069,304.41457 170.63661,335.44907 202.976,347.72597 C 215.69352,353.14017 229.56207,354.14507 242.99843,356.28237 C 272.44888,365.47627 308.99567,359.43527 328.42578,333.80737 C 339.84186,318.98047 343.01325,298.97107 339.127,280.89947 C 333.98445,291.30017 325.07332,299.72947 313.5645,302.39947 C 316.2125,289.04637 312.18098,275.68407 305.28238,264.26267 C 297.83516,252.07577 296.08422,236.67027 302.02743,223.50327 C 311.04485,203.73847 317.86058,179.82067 307.35882,159.25011 C 304.10886,149.75397 301.82102,155.58326 300.1745,162.30933 C 293.30818,183.43067 279.44315,201.39817 263.752,216.80567 C 264.83857,195.25787 272.35659,174.87027 275.55156,153.68834 C 277.3759,142.8976 275.28016,132.06935 273.02104,121.61961 C 271.48321,109.87747 259.24548,103.85408 254.08218,93.798882 C 244.88084,80.425382 241.82048,63.803488 241.28325,47.836958 C 239.96033,49.586958 238.63742,51.336958 237.3145,53.086958 z"
                 id="path15095"
                 style="fill:url(#linearGradient7783);fill-opacity:1;fill-rule:evenodd;stroke:none;stroke-width:2.1563108;stroke-linecap:butt;stroke-linejoin:miter;stroke-miterlimit:4;stroke-opacity:0.50381679" />
              <path
                 d="M 234.06662,347.32237 C 188.15173,298.80847 180.35486,265.02207 210.67602,232.96827 C 244.75122,172.32597 236.3768,134.20793 211.54234,97.822552 C 234.93294,178.39017 183.82013,230.36927 167.36008,253.75987 C 157.54181,223.43877 165.91621,210.44397 179.48855,173.19227 C 152.92143,202.06957 136.75014,237.01107 146.56843,270.21997 C 164.47235,320.17767 206.63319,331.15107 234.06662,347.32237 z"
                 id="path15097"
                 style="fill:url(#linearGradient7785);fill-opacity:1;fill-rule:evenodd;stroke:#ffff00;stroke-width:2.1563108;stroke-linecap:butt;stroke-linejoin:miter;stroke-miterlimit:4;stroke-opacity:0.50381679" />
              <path
                 d="M 289.78874,164.02436 C 283.63393,146.12338 288.65653,142.28977 294.04796,134.46933 C 299.60959,132.3032 297.90493,124.75067 300.93982,107.93088 C 305.53497,126.70437 317.87117,135.24037 289.78874,164.02436 z"
                 id="path15099"
                 style="fill:#ffd700;fill-opacity:1;fill-rule:evenodd;stroke:#ffff00;stroke-width:2.1563108;stroke-linecap:butt;stroke-linejoin:miter;stroke-miterlimit:4;stroke-opacity:0.50381679" />
              <path
                 d="M 296.70508,104.9869 C 294.83368,112.96716 295.67968,121.76195 292.20508,129.20565 C 284.064,135.42502 280.51411,146.98168 284.08392,156.78915 C 285.19226,165.00908 287.76326,166.4272 292.32099,158.92107 C 302.05287,148.90681 311.15848,134.55846 305.61717,120.20932 C 303.11691,112.8905 300.92756,105.46029 298.14258,98.236902 C 297.66341,100.4869 297.18425,102.7369 296.70508,104.9869 z"
                 id="path15101"
                 style="fill:url(#linearGradient7787);fill-opacity:1;fill-rule:evenodd;stroke:none;stroke-width:2.1563108;stroke-linecap:butt;stroke-linejoin:miter;stroke-miterlimit:4;stroke-opacity:0.50381679" />
              <path
                 d="M 329.36169,273.68527 C 345.2442,258.38027 342.0677,251.73847 340.62383,240.76517 C 336.00347,235.56727 341.77892,228.63667 347.55438,209.57767 C 332.82696,226.61527 315.50058,228.92547 329.36169,273.68527 z"
                 id="path15103"
                 style="fill:#ffd700;fill-opacity:1;fill-rule:evenodd;stroke:#ffff00;stroke-width:2.1563108;stroke-linecap:butt;stroke-linejoin:miter;stroke-miterlimit:4;stroke-opacity:0.50381679" />
              <path
                 d="M 254.85827,347.32237 C 272.76219,337.21527 277.67132,305.45027 279.98152,270.21997 C 284.31311,236.14477 292.9763,202.06957 350.15334,196.58287 C 326.76272,215.35317 307.70372,238.45497 316.3669,281.48217 C 314.05672,344.14587 267.56428,341.83567 254.85827,347.32237 z"
                 id="path15105"
                 style="fill:url(#linearGradient7789);fill-opacity:1;fill-rule:evenodd;stroke:#ffff00;stroke-width:2.1563108;stroke-linecap:butt;stroke-linejoin:miter;stroke-miterlimit:4;stroke-opacity:0.50381679" />
              <path
                 d="M 343.565,191.60497 C 319.18377,195.06187 294.05263,209.70957 286.89673,234.58817 C 275.41308,265.68517 281.75874,301.07847 266.09625,330.94877 C 260.14813,333.53377 261.60226,344.62307 268.94806,342.45337 C 290.46452,338.55217 310.88571,323.60437 316.33693,301.66727 C 321.59453,286.43357 318.61329,270.31747 318.05398,254.66997 C 318.7694,231.97657 331.90911,211.51217 349.15875,197.51127 C 352.17831,193.16227 347.14219,191.69937 343.565,191.60497 z"
                 id="path15107"
                 style="fill:url(#linearGradient7791);fill-opacity:1;fill-rule:evenodd;stroke:none;stroke-width:2.1563108;stroke-linecap:butt;stroke-linejoin:miter;stroke-miterlimit:4;stroke-opacity:0.50381679" />
              <path
                 d="M 343.86133,203.48637 C 334.03636,213.88647 319.78283,223.61947 320.12671,239.60987 C 319.40052,251.06637 323.48022,261.98947 326.01758,272.98637 C 334.54625,264.84787 344.24066,254.24637 341.11656,241.41177 C 341.09434,235.75637 336.83198,230.80927 340.17818,225.29897 C 343.39208,216.57337 346.75407,207.89087 348.98633,198.83017 C 347.278,200.38227 345.56966,201.93437 343.86133,203.48637 z"
                 id="path15109"
                 style="fill:url(#linearGradient7793);fill-opacity:1;fill-rule:evenodd;stroke:none;stroke-width:2.1563108;stroke-linecap:butt;stroke-linejoin:miter;stroke-miterlimit:4;stroke-opacity:0.50381679" />
              <path
                 d="M 223.6708,323.93177 C 221.36061,296.20957 218.18411,276.28417 253.12564,251.16097 C 312.32408,209.86647 283.15802,185.89827 246.19509,142.87112 C 257.16846,185.60947 239.55331,219.68467 224.53711,242.49777 C 214.71884,256.64767 180.64364,285.52497 223.6708,323.93177 z"
                 id="path15111"
                 style="fill:url(#linearGradient7795);fill-opacity:1;fill-rule:evenodd;stroke:#ffff00;stroke-width:2.1563108;stroke-linecap:butt;stroke-linejoin:miter;stroke-miterlimit:4;stroke-opacity:0.50381679" />
              <path
                 d="M 201.08933,120.58171 C 217.07777,102.17126 212.9715,94.593212 210.36011,81.917472 C 204.80521,76.074008 210.49139,67.795088 215.04178,45.440968 C 200.48259,65.814958 181.69342,69.203818 201.08933,120.58171 z"
                 id="path15113"
                 style="fill:#ffd700;fill-opacity:1;fill-rule:evenodd;stroke:#ffff00;stroke-width:2.1563108;stroke-linecap:butt;stroke-linejoin:miter;stroke-miterlimit:4;stroke-opacity:0.50381679" />
              <path
                 d="M 211.20508,41.518148 C 201.89539,53.692378 187.77762,64.926138 188.51758,81.799402 C 188.4173,95.828762 193.94668,108.91783 198.08008,122.08065 C 206.52034,112.44595 215.5002,100.21081 211.74366,86.634512 C 211.76941,81.262952 208.00666,77.092638 207.89822,72.019308 C 209.9551,60.043968 214.21087,48.476238 215.89258,36.393148 C 214.33008,38.101478 212.76758,39.809818 211.20508,41.518148 z"
                 id="path15115"
                 style="fill:url(#linearGradient7797);fill-opacity:1;fill-rule:evenodd;stroke:none;stroke-width:2.1563108;stroke-linecap:butt;stroke-linejoin:miter;stroke-miterlimit:4;stroke-opacity:0.50381679" />
              <path
                 d="M 245.30425,135.70802 C 251.70933,164.84338 245.11261,195.53647 230.36863,221.13277 C 221.215,238.73007 203.16773,252.20707 201.44801,273.14377 C 198.68951,291.38827 211.83533,306.59517 224.01699,318.38477 C 228.97883,324.62377 224.72588,309.87427 225.40121,306.42157 C 223.4215,288.47287 226.49994,268.33377 240.98371,256.02177 C 257.10885,240.33437 280.10729,229.45987 287.83121,206.91247 C 293.05553,186.99957 279.13453,169.15063 266.99252,155.01068 C 259.66984,146.12535 251.94951,137.60454 244.273,129.02052 C 244.61675,131.24969 244.9605,133.47885 245.30425,135.70802 z"
                 id="path15117"
                 style="fill:url(#linearGradient7799);fill-opacity:1;fill-rule:evenodd;stroke:none;stroke-width:2.1563108;stroke-linecap:butt;stroke-linejoin:miter;stroke-miterlimit:4;stroke-opacity:0.50381679" />
              <path
                 d="M 216.20594,109.85866 C 216.83981,123.63641 220.757,137.27983 218.96326,151.18697 C 217.38096,183.65387 203.11542,214.18567 183.42132,239.60107 C 179.76789,244.79227 175.87684,249.81037 172.11219,254.92117 C 167.07802,238.14837 169.35064,220.06307 176.13083,204.14647 C 179.70132,195.64177 182.20731,186.81457 183.51844,177.67116 C 164.69749,194.84057 151.41488,218.24487 146.73719,243.29617 C 142.94555,266.46557 151.09633,290.28637 166.46767,307.69917 C 185.79494,330.50057 213.58431,343.31267 240.51844,354.76487 C 225.25628,333.29687 204.01013,313.92577 199.49811,286.80267 C 196.40316,271.05327 202.60484,255.24597 212.94787,243.47077 C 224.78726,227.20477 232.16112,207.85547 236.54154,188.32457 C 242.23046,162.8883 237.6701,135.38488 223.76844,113.32741 C 220.33807,110.8197 214.20849,97.642918 216.20594,109.85866 z"
                 id="path15119"
                 style="fill:url(#linearGradient7801);fill-opacity:1;fill-rule:evenodd;stroke:none;stroke-width:2.1563108;stroke-linecap:butt;stroke-linejoin:miter;stroke-miterlimit:4;stroke-opacity:0.50381679" />
            </g>
          </g>
        </g>
      </g>
    </g>
  </g>
</svg>
